<?xml version="1.0" standalone="no"?>
<!DOCTYPE svg PUBLIC "-//W3C//DTD SVG 1.1//EN" "http://www.w3.org/Graphics/SVG/1.1/DTD/svg11.dtd" >
<svg xmlns="http://www.w3.org/2000/svg">
<metadata>
This is a custom SVG webfont generated by Font Squirrel.
Copyright   : Copyright c 
</metadata>
<defs>
<font id="RaananBoldRegular" horiz-adv-x="1024" >
<font-face units-per-em="2048" ascent="1505" descent="-543" />
<missing-glyph horiz-adv-x="452" />
<glyph unicode=" "  horiz-adv-x="452" />
<glyph unicode="&#x09;" horiz-adv-x="452" />
<glyph unicode="&#xa0;" horiz-adv-x="452" />
<glyph unicode="!" horiz-adv-x="437" d="M88 100q0 -54 38.5 -92t93.5 -38t93.5 38t38.5 92q0 55 -39 93.5t-93 38.5t-93 -38.5t-39 -93.5zM104 1071q-2 51 50 51l129 1q53 0 51 -52l-25 -685q-1 -52 -51 -52h-81q-49 0 -51 52z" />
<glyph unicode="&#x22;" horiz-adv-x="570" d="M36 818l86 319q10 37 46 37q8 0 17 -3l79 -23q51 -15 34 -64l-110 -313q-13 -37 -47 -37q-8 0 -17 3l-54 17q-47 15 -34 64zM284 817l86 319q10 37 46 37q8 0 17 -3l79 -23q51 -15 34 -64l-110 -313q-13 -37 -47 -37q-8 0 -17 3l-54 17q-47 15 -34 64z" />
<glyph unicode="#" horiz-adv-x="1242" d="M72 287l14 85q9 50 51 50h187l32 181h-164q-60 0 -51 51l14 85q9 51 52 51h181l34 191q7 42 59 42h86q52 -1 41 -60l-31 -173h180l33 191q8 42 59 42h87q24 0 35 -18t7 -41l-31 -174h155q60 0 51 -51l-15 -85q-8 -51 -51 -51h-173l-32 -181h150q60 0 51 -50l-14 -85 q-9 -51 -51 -51h-168l-35 -197q-7 -42 -59 -41l-86 1q-51 0 -41 59l31 178h-181l-34 -196q-8 -41 -60 -41h-84q-52 0 -41 59l31 178h-168q-60 0 -51 51zM512 422h181l31 181h-180z" />
<glyph unicode="$" horiz-adv-x="851" d="M92 733q0 117 74 194.5t204 94.5v100q0 41 41 41h57q41 0 41 -41v-100q131 -11 196 -35q29 -10 21 -49l-19 -101q-7 -36 -52 -23q-68 20 -146 26v-242q135 -37 200 -91q89 -75 89 -206q0 -254 -289 -298v-122q0 -41 -41 -41h-57q-41 0 -41 41v118q-152 4 -252 46 q-30 12 -23 50l22 106q7 38 50 24q102 -33 203 -40v269q-129 32 -192 84q-86 70 -86 195zM282 741q0 -79 88 -108v206q-88 -7 -88 -98zM509 193q95 28 95 107q0 84 -95 116v-223z" />
<glyph unicode="%" horiz-adv-x="1429" d="M79 713q0 308 256 308q255 0 255 -308q0 -321 -255 -321q-256 0 -256 321zM249 715q0 -101 19 -137.5t66 -36.5q46 0 65.5 38t19.5 136q0 166 -84 166q-86 0 -86 -166zM459 -17l312 1082q11 38 47 38q8 0 16 -3l99 -28q49 -14 35 -64l-312 -1082q-11 -37 -47 -37 q-8 0 -16 2l-99 28q-49 14 -35 64zM845 320q0 308 256 308q255 0 255 -308q0 -321 -255 -321q-256 0 -256 321zM1015 322q0 -101 19 -139q19 -34 66 -34q46 0 65.5 37.5t19.5 135.5q0 166 -84 166q-86 0 -86 -166z" />
<glyph unicode="&#x26;" horiz-adv-x="1758" d="M79 870v105q0 50 51 50h1029q51 0 51 -51v-771h38q109 0 157 50q53 54 53 187v380l-61 -1q-51 -1 -51 51v103q0 50 51 51h215q51 1 51 -51v-499q0 -222 -84 -334q-105 -139 -351 -139l-555 -1q-74 0 -74 86v558q0 46 51 46h103q51 0 51 -51v-437h283q-33 0 -58 41 q-24 38 -24 80v497l-601 -1v-767q0 -52 -51 -52h-103q-51 0 -51 52v767h-69q-51 0 -51 51z" />
<glyph unicode="'" horiz-adv-x="369" d="M54 815l84 329q10 37 46 37q9 0 18 -2l93 -27q52 -15 34 -64l-116 -321q-13 -37 -47 -37q-8 0 -16 3l-62 19q-47 14 -34 63z" />
<glyph unicode="(" horiz-adv-x="457" d="M65 516q0 -329 156 -630q19 -36 57 -25l80 24q43 12 27 56q-112 312 -112 575q0 247 111 554q17 46 -25 59l-79 23q-39 11 -59 -25q-156 -289 -156 -611z" />
<glyph unicode=")" horiz-adv-x="457" d="M69 -59q113 312 113 575q0 247 -112 554q-16 46 26 59l79 23q39 11 59 -25q156 -289 156 -611q0 -329 -157 -630q-18 -36 -56 -25l-80 24q-43 12 -28 56z" />
<glyph unicode="*" horiz-adv-x="778" d="M80 766q-14 -43 29 -57l157 -50l-95 -132q-26 -36 11 -64l57 -42q36 -26 62 10l98 134l95 -132q26 -36 64 -9l57 42q36 27 10 62l-99 134l158 51q43 14 28 57l-23 67q-15 42 -56 28l-157 -52v164q0 46 -45 46h-71q-45 0 -45 -46v-164l-156 51q-43 13 -57 -31z" />
<glyph unicode="+" horiz-adv-x="815" d="M84 452v81q0 51 51 51h182v167q0 51 51 51h82q51 0 51 -51v-167h182q51 0 51 -51v-81q0 -51 -51 -51h-182v-177q0 -51 -51 -51h-82q-51 0 -51 51v177h-182q-51 0 -51 51z" />
<glyph unicode="," horiz-adv-x="316" d="M19 -134l84 329q10 37 46 37q9 0 18 -3l93 -27q52 -15 34 -64l-115 -321q-14 -37 -48 -37q-8 0 -16 3l-62 19q-47 14 -34 64z" />
<glyph unicode="-" horiz-adv-x="858" d="M125 409v103q0 51 51 51l507 1q51 0 51 -52v-102q0 -51 -51 -51h-507q-51 0 -51 50z" />
<glyph unicode="." horiz-adv-x="377" d="M54 100q0 -54 38.5 -92t93.5 -38t93.5 38t38.5 92q0 55 -39 93.5t-93 38.5t-93 -38.5t-39 -93.5z" />
<glyph unicode="/" horiz-adv-x="727" d="M57 15l424 1044q13 33 45 33q10 0 21 -5l96 -38q47 -20 28 -67l-424 -1044q-13 -33 -45 -33q-11 0 -21 5l-96 38q-47 19 -28 67z" />
<glyph unicode="0" horiz-adv-x="778" d="M54 512q0 -525 340 -525q198 0 279 163q61 122 61 362q0 525 -340 525t-340 -525zM265 512q0 339 128 339q130 0 130 -339q0 -139 -15 -205q-29 -130 -117 -130q-126 0 -126 335z" />
<glyph unicode="1" horiz-adv-x="639" d="M86 870v104q0 51 51 51h271q51 0 51 -51v-772h55q51 0 51 -51v-101q0 -51 -51 -51h-366q-51 0 -51 50v102q0 50 51 51l107 1v617l-118 -1q-51 0 -51 51z" />
<glyph unicode="2" horiz-adv-x="707" d="M58 898l34 -86q13 -32 44 -32q14 0 27 9q73 49 164 46q53 -1 87 -44q31 -38 32 -87q2 -92 -87 -198l-256 -268q-30 -32 -30 -64v-125q0 -51 51 -51h473q52 0 51 51l-2 98q-1 51 -51 51h-280q178 167 245 267q88 133 80 270q-7 130 -89 212q-85 86 -222 85 q-138 -1 -246 -67q-42 -26 -25 -67z" />
<glyph unicode="3" horiz-adv-x="691" d="M51 85q0 -34 35 -48q135 -54 224 -54q154 0 244.5 84.5t90.5 224.5q0 94 -47 165q-45 68 -120 95q56 27 91.5 87t35.5 121q0 120 -79.5 196t-212.5 76q-117 0 -211 -52q-31 -18 -31 -50q0 -9 4 -17l41 -83q22 -42 63 -18q66 38 125 38q43 0 73 -27q34 -30 35 -82 q2 -50 -41 -87q-46 -41 -120 -41q-52 0 -52 -52v-92q0 -52 52 -51q199 3 199 -127q0 -53 -41.5 -84.5t-93.5 -31.5q-72 0 -158 40q-12 6 -23 6q-29 0 -44 -34l-34 -79q-5 -11 -5 -23z" />
<glyph unicode="4" horiz-adv-x="814" d="M73 265q0 -52 51 -52h339v-161q0 -51 51 -51h94q53 0 53 51v161h53q51 0 51 52v85q0 51 -51 51h-53v239q0 51 -51 51h-91q-51 0 -51 -51v-239h-182l220 546q20 50 -28 67l-93 33q-49 18 -67 -28l-226 -591q-19 -50 -19 -68v-95z" />
<glyph unicode="5" horiz-adv-x="747" d="M60 93q-14 -38 32 -56q129 -52 231 -52q174 0 270.5 93.5t100.5 271.5q3 152 -85 245q-82 85 -202 85q-96 0 -128 -32l-1 182h297q51 0 52 51v92q1 51 -51 51h-440q-51 0 -51 -51l1 -431q0 -31 27 -46l71 -37q34 -18 63 4q53 40 104 40q57 0 101.5 -45t43.5 -109 q-1 -82 -49 -127t-124 -44q-60 0 -160 43q-12 5 -24 5q-30 0 -43 -33z" />
<glyph unicode="6" horiz-adv-x="747" d="M55 448q0 -213 83 -334q86 -126 245 -126q138 0 221 88q89 93 89 260q0 157 -85 250q-79 87 -201 87q-93 0 -145 -71q12 110 76 182q57 63 118 63q54 0 82 -8q51 -15 64 34l22 82q14 51 -34 64q-58 16 -133 16q-198 0 -308 -192q-94 -163 -94 -395zM267 340q0 69 38 116 q34 42 77 42q118 0 118 -162q0 -76 -36 -120q-32 -39 -82 -39q-45 0 -77 39q-38 45 -38 124z" />
<glyph unicode="7" horiz-adv-x="747" d="M60 866q0 -51 52 -51l332 2l-208 -745q-2 -8 -2 -16q0 -37 39 -46l102 -25q8 -2 15 -2q36 0 47 40l241 907q4 15 4 29q0 65 -61 65h-509q-52 0 -52 -51v-107z" />
<glyph unicode="8" horiz-adv-x="716" d="M49 274q0 -133 87 -210t227 -77q142 0 226.5 79t84.5 217q0 188 -155 276q126 76 126 219q0 116 -76.5 187.5t-203.5 71.5q-125 0 -204 -73t-79 -185q0 -145 127 -238q-63 -24 -109 -94q-51 -77 -51 -173zM241 294q0 97 111 177q129 -67 129 -177q0 -59 -37 -96 q-33 -34 -81 -34q-50 0 -86 36t-36 94zM260 779q0 41 32 68.5t73 27.5q42 0 73 -25q34 -28 34 -71q0 -79 -99 -151q-113 71 -113 151z" />
<glyph unicode="9" horiz-adv-x="716" d="M45 690q0 -147 74 -231t204 -84q47 0 93 20q50 22 64 54q-23 -277 -289 -277q-54 0 -50 -52l6 -86q4 -49 55 -47q206 8 318 119q158 159 158 466q0 464 -319 464q-143 0 -228.5 -94t-85.5 -252zM240 693q0 164 122 164q113 0 113 -163q0 -62 -32.5 -100.5t-75.5 -41.5 q-45 -3 -80 26q-47 38 -47 115z" />
<glyph unicode=":" horiz-adv-x="373" d="M47 100q0 -54 38.5 -92t93.5 -38t93.5 38t38.5 92q0 55 -39 93.5t-93 38.5t-93 -38.5t-39 -93.5zM47 720q0 -54 38.5 -92t93.5 -38t93.5 38t38.5 92q0 55 -39 93.5t-93 38.5t-93 -38.5t-39 -93.5z" />
<glyph unicode=";" horiz-adv-x="373" d="M25 -134l84 329q10 37 46 37q9 0 18 -3l93 -27q52 -15 34 -64l-115 -321q-14 -37 -48 -37q-8 0 -16 3l-62 19q-47 14 -34 64zM47 720q0 -54 38.5 -92t93.5 -38t93.5 38t38.5 92q0 55 -39 93.5t-93 38.5t-93 -38.5t-39 -93.5z" />
<glyph unicode="&#x3c;" horiz-adv-x="757" d="M89 546q-36 -36 1 -72l463 -463q17 -18 36 -18t36 18l72 72q17 17 17 37q0 19 -17 35l-358 354l358 353q16 16 16 36t-17 36l-73 74q-36 35 -72 -1z" />
<glyph unicode="=" horiz-adv-x="858" d="M125 348v62q0 51 51 51h507q51 0 51 -51v-62q0 -51 -51 -51h-507q-51 0 -51 51zM125 591v62q0 51 51 51h507q51 0 51 -51v-62q0 -51 -51 -51h-507q-51 0 -51 51z" />
<glyph unicode="&#x3e;" horiz-adv-x="757" d="M73 120q0 19 16 35l364 354l-363 353q-16 15 -16 36q0 19 16 36l74 74q36 35 72 -1l461 -461q36 -36 0 -72l-463 -463q-17 -18 -36 -18t-36 18l-72 72q-17 17 -17 37z" />
<glyph unicode="?" horiz-adv-x="656" d="M68 991l36 -81q15 -33 41 -33q12 0 27 7q77 37 135 34q39 -2 65.5 -28t26.5 -60q0 -49 -48 -104q-79 -90 -90 -108q-49 -76 -49 -177v-56q0 -51 51 -51h95q51 0 51 52v31q0 87 92 196.5t92 227.5q0 128 -81 204q-77 73 -199 73q-119 0 -223 -59q-41 -23 -22 -68zM184 100 q0 -54 38.5 -92t93.5 -38q54 0 93 38t39 92q0 55 -39 93.5t-93 38.5q-55 0 -93.5 -38.5t-38.5 -93.5z" />
<glyph unicode="@" horiz-adv-x="1939" d="M276 666q0 304 194.5 504t498.5 200q252 0 432 -149q192 -159 192 -406q0 -259 -178 -418q-136 -121 -256 -121q-126 0 -141 166q-65 -81 -98 -106q-62 -47 -134 -47q-110 0 -184 83q-72 79 -72 191q0 175 116 307q121 136 294 136q135 0 172 -150l35 137h147l-159 -600 q0 -31 16 -53q18 -16 45 -21q123 0 244 207q2 4 20 47q23 55 33 91q20 74 20 143q0 214 -164 351q-153 128 -372 128q-275 0 -448 -170.5t-173 -445.5t184 -445q179 -164 457 -164q301 0 496 287h96q-82 -148 -198 -235q-191 -142 -402 -142q-309 0 -509 192 q-204 196 -204 503zM678 514q0 -70 31 -121q36 -61 102 -61q118 0 198 181q66 149 66 282q0 166 -110 166q-123 0 -211 -166q-76 -143 -76 -281z" />
<glyph unicode="A" horiz-adv-x="1479" d="M16 0v37q85 15 96 67q64 19 127 167l477 1116l44 -27l463 -1101q48 -114 105 -139q31 -77 128 -83v-37h-535l39 32q72 32 99 88q0 44 -40 139l-82 195h-525l-92 -214q-34 -79 -34 -118q0 -74 114 -82l43 -40h-427zM443 528l429 16l-176 528z" />
<glyph unicode="B" horiz-adv-x="1366" d="M80 64l5 -27q86 0 122 54q9 53 23 149v876q0 126 -29 159q-39 44 -116 44l43 -7l-48 40l540 4h14q327 0 466 -139q91 -91 91 -223q0 -223 -245 -302q141 -30 211 -96q97 -92 97 -225q0 -114 -65 -201t-174 -127q-117 -43 -315 -43h-26l-578 8zM400 160q138 -89 251 -89 q151 0 252 64q119 76 119 219q0 188 -183 267q-97 42 -240 42q-128 0 -177 -9zM422 746h8q65 0 170 30q68 -11 124 -11q162 0 219 95q39 65 39 142q0 145 -123 222q-104 65 -257 65q-100 0 -180 -22v-521z" />
<glyph unicode="C" horiz-adv-x="1366" d="M74 657q0 199 86 365q90 175 256 272q159 93 348 93q148 0 290 -72q43 -22 60 -22q23 5 23 31q0 27 -25 76l121 -13l31 -461l-64 2q-84 387 -420 387q-295 0 -415 -287q-63 -151 -63 -373q0 -382 237 -526q88 -27 214 -27q30 0 63 2q55 -18 106 -18q82 0 151 48 q79 114 191 204l72 -18q-238 -351 -602 -351q-337 0 -522 250q-138 186 -138 438z" />
<glyph unicode="D" horiz-adv-x="1479" d="M64 1376l523 -20q296 -11 407 -49q198 -67 306 -242q101 -163 101 -380q0 -284 -172 -473q-193 -212 -567 -212h-21l-537 8l-16 -8l-2 37q86 0 122 55q22 33 22 148v876q0 127 -102 140q11 20 11 31q0 15 -19 15q-12 0 -32 -6zM416 1240l6 -1142q14 1 43 1q58 0 175 -3 h18q247 0 383 160q132 154 132 419q0 267 -149 413q-164 160 -392 160q-29 3 -63 3q-68 0 -153 -11z" />
<glyph unicode="E" horiz-adv-x="1251" d="M72 1312v40l1007 -12l15 -297l-70 5q-16 88 -32 128q-32 39 -208 88h-376l24 -488l286 -46q192 0 192 104q0 15 -6 30l72 32l32 -360l-88 -32q-3 51 -17 78q-39 76 -156 76q-17 0 -29 -1l-294 -25l-4 -422v-41q0 -34 1 -36q37 -25 59 -37q11 -6 26 -6q24 0 62 14h184 q56 8 94 8t58 -8q72 24 125 33q43 63 67 183l96 -16l-96 -320h-1000l-16 80l2 -43q47 0 86 83q18 -16 31 -16q33 0 33 166v10l-4 840q-28 119 -28 149q0 8 2 10q-35 40 -120 40z" />
<glyph unicode="F" horiz-adv-x="1139" d="M32 8l40 56l9 -27q55 51 103 51q0 64 43 152v876q0 103 -13 136q-27 67 -133 67l-9 -23l-8 64l960 -8l31 -294l-79 -2q-24 144 -120 192q-32 -16 -152 -16h-288l16 -416l234 -67q70 35 133 47q32 39 44 139h37v-459h-37q-2 133 -74 172q-33 18 -103 18l-226 -42l-21 -384 q19 -52 19 -93q0 -23 -6 -43q4 -11 18 -11q19 0 54 19q64 -40 62 -75h49v-37z" />
<glyph unicode="G" horiz-adv-x="1479" d="M64 649q-1 17 -1 33q0 188 87 310q164 400 504 400q61 0 128 -13q131 0 306 -65q57 -21 75 -21q29 0 29 25q0 14 -8 34l80 8l20 -409l-84 9q-4 151 -88 232q-96 68 -220 68q-52 0 -108 -12q-68 26 -127 26q-161 0 -249 -194q-114 -148 -114 -388q0 -176 64 -330 q114 -122 210 -186l224 -56q14 -1 28 -1q124 0 196 65l79 312q0 76 -6 103q-41 17 -97 41q1 8 1 15q0 41 -33 49l32 80l448 -8l-48 -96l25 14q-52 -66 -77 -66q-14 0 -20 20q-17 -24 -17 -74q0 -36 9 -86l-104 -384q-112 -192 -416 -216q-436 32 -608 312q-110 179 -120 449 z" />
<glyph unicode="H" horiz-adv-x="1479" d="M27 0v37l21 43q27 -8 46 -8q39 0 50 32q56 48 72 160l5 851v14q0 97 -13 123q-48 4 -48 20q-80 0 -85 47l-43 -55v104l576 -12v-37h-49q-53 0 -86 -28q-22 -19 -56 -75q-4 -23 -4 -101l43 -339h576l11 339v29q0 74 -13 108q-62 12 -133 67h-48v37h580v-37h-48 q-82 0 -141 -119q-1 -1 -1 -3q0 -15 25 -93l-29 -864v-29q0 -73 13 -91q50 -28 50 -46q0 -7 -9 -13q43 -24 92 -24h48v-37h-557l-23 37l47 3h10q77 0 112 46q25 32 25 154v413h-630v-413q0 -103 35 -136q6 -36 61 -36q19 0 43 4l56 -35v-45z" />
<glyph unicode="I" horiz-adv-x="682" d="M40 4l3 33h48q84 0 93 67q40 44 53 136v876q0 103 -13 136q-10 26 -68 28q-27 21 -68 32l-44 12v48l584 8l-4 -61h-49q-59 -35 -87 -87q-48 -24 -59 -116l19 -868q23 -58 23 -104q0 -17 -3 -32q24 -48 107 -75l41 43l8 -80z" />
<glyph unicode="J" horiz-adv-x="797" d="M57 161q0 50 40 50q10 0 23 -3q20 6 38 6q42 0 65 -33q15 -21 45 -69q15 -17 24 -17q8 0 12 13q52 0 56 88l39 920q1 18 1 34q0 67 -14 102q-50 36 -134 44l-48 23l-12 77h600l-7 -77h-49q-80 -15 -121 -49q-24 -31 -24 -154v-663q0 -285 -143 -425q-88 -59 -204 -59 q-77 0 -135 37q-49 54 -49 122q-3 19 -3 33z" />
<glyph unicode="K" horiz-adv-x="1479" d="M46 1311l2 53l572 -4l-4 -56l-44 -20q-9 2 -18 2q-41 0 -106 -90q-16 -10 -16 -88v-415q39 37 124 155q312 246 360 336q8 44 16 72q-23 12 -64 48l-32 28l4 48l488 4l2 -73q-74 -11 -174 -59q-40 -40 -116 -124q-97 -80 -172 -168l-184 -216l440 -497q181 -204 384 -218 v-37h-645v37q109 0 109 63q0 43 -72 114l-468 463v-437q0 -103 13 -136q25 -42 83 -42q13 0 28 2l56 -8l4 -56h-568l8 36l24 24q92 8 136 26q24 31 24 154v876q-12 100 -13 137q-25 10 -67 39q-23 16 -66 27h-48z" />
<glyph unicode="L" horiz-adv-x="1251" d="M28 1360h628l-8 -96q-68 19 -114 19q-72 0 -94 -45q-9 -18 -16 -153l-44 -853q16 -68 60 -113q28 -23 84 -31l192 16q132 -4 198 -13q181 43 222 233l96 -44l-145 -288h-1050v37h51q86 0 123 56q21 32 21 148v875q0 127 -32 176q-50 2 -100 8l-68 8zM1144 56zM1164 132z " />
<glyph unicode="M" horiz-adv-x="1821" d="M36 1364l388 8l440 -1052l532 1060l368 -20l-8 -44l-25 -1q-87 -23 -123 -52q-22 -32 -22 -146v-886q0 -125 28 -156q38 -43 98 -43h56l-8 -44l-548 12v44l48 16q26 -9 48 -9q59 0 77 66q9 33 9 114v906l-502 -1105l-56 -16l-472 1052l-50 -837q18 -115 27 -156 q37 -42 117 -42h48v-37h-454l8 52l52 -4q9 -2 18 -2q41 0 58 46q20 28 38 143l-26 885q6 77 6 115v16q-38 53 -166 57z" />
<glyph unicode="N" horiz-adv-x="1479" d="M4 1324l8 36l320 12l826 -1037v782q-18 111 -28 156h-3q-41 0 -111 23h-56l6 56h472l2 -60h-44q-78 0 -128 -29q-22 -32 -22 -146v-1143h-36l-894 1092v-835q0 -126 27 -156q35 -39 86 -39h7l20 4l-12 -32l-408 -12l40 48l7 -11q87 0 123 52q22 32 22 146v943 q-51 60 -79 82q-38 30 -100 50q-28 9 -45 18z" />
<glyph unicode="O" horiz-adv-x="1479" d="M72 683q0 323 220 527q191 177 457 177q297 0 478 -205q173 -195 173 -496q0 -310 -177 -509q-184 -208 -490 -208q-308 0 -489 206q-172 196 -172 508zM301 679q0 -231 11 -232q5 0 12 45q207 -420 353 -420q14 0 27 4q22 -4 44 -4q237 0 424 440q0 -37 -1 -37v175 q0 178 -18 264q-12 57 -55 151q-100 218 -325 218q-26 0 -53 -3q-28 4 -54 4q-136 0 -228 -113q-137 -168 -137 -492z" />
<glyph unicode="P" horiz-adv-x="1139" d="M34 0v37h51q86 0 123 56q20 31 20 147v876q0 128 -27 159q-39 44 -116 44h-51v37h497q160 0 254 -27q126 -36 202 -126q80 -94 80 -222q0 -183 -121 -282q-111 -92 -298 -92q-98 0 -228 28v-395q0 -127 28 -159q39 -44 115 -44h52v-37h-581zM420 692q106 -20 164 -20 q115 0 187 89q68 83 68 200q0 199 -138 277q-65 37 -150 37q-51 0 -131 -19v-564z" />
<glyph unicode="Q" horiz-adv-x="1479" d="M72 681q0 311 180 506q186 200 494 200q300 0 481 -208q174 -198 174 -502q0 -244 -133 -431q-135 -192 -366 -261q191 -330 490 -354v-32q-303 11 -592 195q-141 90 -243 191q-147 59 -228 123q-257 202 -257 573zM301 681q0 -329 142 -507q125 -50 291 -137 q233 0 347 201q91 160 91 414q0 454 -225 598q-94 60 -213 60q-235 0 -346 -208q-87 -163 -87 -421z" />
<glyph unicode="R" horiz-adv-x="1366" d="M60 -4l32 40l-6 1q86 0 123 56q21 32 21 147v876q0 129 -28 159q-21 22 -38 33l4 -4l-32 60l393 -8q200 -4 266 -18q133 -28 212 -111q86 -89 86 -220q0 -273 -334 -347l280 -389q85 -118 144 -162q79 -59 201 -72v-37h-362l-459 634q-51 -2 -83 -2q-27 0 -59 2v-394 q0 -127 28 -159q39 -44 114 -44h53v-37zM405 1249l39 -529l-11 -35q19 -1 28 -1q163 0 267 66q124 78 124 232q0 133 -78 209.5t-212 76.5q-58 0 -157 -19z" />
<glyph unicode="S" horiz-adv-x="1139" d="M124 1038q0 162 120 262q112 95 277 95q109 0 229 -53q32 -14 53 -14q16 0 25 8q15 -5 27 -5q28 0 33 33l60 -4l-4 -400l-52 32q-28 187 -204 244q-44 48 -98 48q-35 0 -74 -20q-35 21 -67 21q-47 0 -89 -45q-77 -42 -77 -133q0 -61 43 -113q62 -74 295 -200 q167 -90 206 -117q198 -136 198 -323q0 -176 -128 -280q-119 -97 -299 -97q-74 0 -111 9l-139 34q-49 12 -113 34q-50 0 -55 -50l-44 8l4 396l28 12q29 -109 65 -176q48 -90 146 -141q91 -48 198 -48q110 0 185 55q85 61 85 167q0 110 -113 196q-70 53 -231 141 q-156 85 -229 142q-150 118 -150 282z" />
<glyph unicode="T" horiz-adv-x="1251" d="M60 1168l18 188h1107l15 -212h-68q4 -5 5 -6l1 1q-1 6 -6 19q-72 66 -218 113l-190 -27l-1 -1009q-11 -43 -11 -75q0 -59 38 -81q38 -27 117 -42l13 -1l8 -32l-532 -8l4 44l27 -3q86 0 122 52q31 18 31 74q0 31 -9 72l-15 1013l-144 4h-144q-102 -34 -102 -80q0 -6 2 -12 z" />
<glyph unicode="U" horiz-adv-x="1479" d="M12 1328l16 80h576l-7 -89h-52q-85 -11 -120 -53q-61 -26 -73 -138l-4 -600q24 -240 119 -343q73 -106 235 -106q17 0 34 1q16 -1 31 -1q113 0 197 53q116 44 144 156q40 72 64 288v540q0 127 -52 156q-12 27 -62 27q-17 0 -38 -3h-48l16 100l468 -16l1 -61h-51 q-79 0 -110 -59q-12 -30 -12 -144v-560q-22 -188 -52 -284q-95 -304 -492 -304q-396 0 -500 284q-32 245 -32 334v530q0 105 -22 145q-32 58 -124 58z" />
<glyph unicode="V" horiz-adv-x="1479" d="M18 1319v37h554v-37q-150 -14 -150 -91q0 -50 46 -156l345 -795l320 785q47 115 47 161q0 71 -127 93l-17 3v37h418v-37q-73 -13 -109 -46q-52 -47 -94 -150l-473 -1154h-37l-508 1169q-39 91 -55 110q-50 62 -160 71z" />
<glyph unicode="W" horiz-adv-x="1933" d="M112 1308l8 52l388 -8l33 -37l-37 -27q-32 7 -43 7q-53 -1 -53 -62q0 -22 44 -161l236 -748l184 636v203q-41 118 -129 146q-3 3 13 19l4 48h400v-56l-4 -44q-28 8 -51 8q-59 0 -85 -52q4 -52 92 -184l224 -748l260 768q15 45 44 160q0 49 -20 56q-35 12 -56 4l-8 80h344 l-12 -56q-60 -32 -84 -92q-19 -20 -64 -160l-356 -1096l-85 1l-267 871l-349 -871h-36l-403 1126q-42 118 -57 149q-32 68 -75 68z" />
<glyph unicode="X" horiz-adv-x="1479" d="M15 0v37q50 5 88 21q126 53 246 205l320 404l-267 391q-89 130 -148 180q-91 77 -212 81v37h627v-37q-139 -5 -139 -77q0 -36 48 -108l208 -311l241 305q61 77 61 115q0 49 -50 67q-22 8 -95 9v37h481v-37q-58 -3 -93 -18q-97 -41 -226 -206l-269 -344l291 -434 q99 -148 133 -183q87 -91 195 -97v-37h-582v37q45 1 66 6q68 16 68 71q0 23 -9 46q-5 12 -55 88l-230 348l-284 -364q-63 -81 -63 -118q0 -72 130 -77v-37h-481z" />
<glyph unicode="Y" horiz-adv-x="1479" d="M48 1316v40h424l8 -24l4 -4q21 -9 -14 -29q-43 -24 -43 -68q0 -20 61 -130l224 -405l256 392q100 92 104 128q-4 56 -44 76q-14 27 -20 28l-4 36h360l8 -36q-47 -1 -132 -90q-48 -50 -101 -140l-303 -514l-24 -341q24 -119 28 -156q38 -42 120 -42h44v-37h-576v37h48 q86 0 122 52q-10 27 -26 139l32 316l-356 580q-49 80 -77 111q-32 36 -110 74q-5 3 -13 7zM1348 1320z" />
<glyph unicode="Z" horiz-adv-x="1251" d="M10 -8v37l850 1227h-412q-184 0 -208 -72q-4 -68 -28 -104l-68 8v280h956l-832 -1236h572q45 -11 78 -11q64 0 90 39q60 44 76 164h96v-320z" />
<glyph unicode="[" horiz-adv-x="496" d="M79 -269q0 -51 51 -51h272q51 0 51 51v102q0 52 -51 52l-118 -1v1201h118q51 0 51 51v102q0 51 -51 51h-272q-51 0 -51 -51v-1507z" />
<glyph unicode="\" horiz-adv-x="575" d="M23 1165h94l450 -1433h-96z" />
<glyph unicode="]" horiz-adv-x="496" d="M47 -167q0 52 51 52l119 -1v1201h-119q-51 0 -51 51v102q0 51 51 51h272q51 0 51 -51v-1507q0 -51 -51 -51h-272q-51 0 -51 51v102z" />
<glyph unicode="^" horiz-adv-x="1014" d="M162 936l248 405h133l248 -405h-142l-170 248l-174 -248h-143z" />
<glyph unicode="_" horiz-adv-x="641" d="M78 -145h485v-97h-485v97z" />
<glyph unicode="`" horiz-adv-x="682" d="M118 1390h223l106 -345l-55 -9z" />
<glyph unicode="a" horiz-adv-x="909" d="M73 217q0 142 173 244q102 60 337 146v36q0 239 -170 239q-53 0 -94 -29q-46 -32 -44 -83l2 -58v-6q0 -90 -85 -90q-84 0 -84 97q0 113 117 177q96 53 218 53q229 0 287 -138q18 -43 18 -176v-311q0 -181 22 -200q11 -10 26 -10q16 0 28 7q20 12 81 73v-56 q-112 -150 -214 -150q-106 0 -108 150q-142 -110 -177 -126q-54 -25 -115 -25q-100 0 -160 69q-58 66 -58 167zM241 264q0 -65 38 -114q41 -53 104 -53q76 0 200 100v349q-149 -59 -195 -85q-147 -82 -147 -197z" />
<glyph unicode="b" d="M-4 1310l275 112h45v-664q133 185 287 185q168 0 266 -147q85 -127 85 -303q0 -244 -162 -393q-139 -128 -310 -128q-159 0 -331 116v949q0 216 -31 241q-16 13 -40 13q-28 0 -70 -16zM316 146q103 -101 217 -101q125 0 194 141q54 111 54 250q0 137 -58 240 q-71 125 -199 125q-53 0 -106 -27q-40 -20 -102 -80v-548z" />
<glyph unicode="c" horiz-adv-x="909" d="M70 457q0 208 113 343q120 143 324 143q106 0 200 -56q109 -65 109 -164q0 -85 -93 -85q-60 0 -89 38q-7 9 -23 82q-26 118 -137 118q-100 0 -161 -74q-81 -98 -81 -259q0 -155 70 -274q83 -141 228 -141q97 0 176 67q55 47 107 167l29 -14q-32 -158 -126 -260 q-106 -116 -258 -116q-183 0 -292 156q-96 138 -96 329z" />
<glyph unicode="d" d="M68 420q0 201 119 356q129 168 324 168q121 0 200 -77v169q0 217 -31 242q-16 13 -40 13q-26 0 -69 -16l-13 35l273 112h45v-1059q0 -219 32 -246q16 -14 38 -14q27 0 72 17l11 -35l-272 -113h-46v131q-125 -131 -269 -131q-170 0 -277 143q-97 130 -97 305zM251 499 q0 -153 64 -272q78 -145 220 -145q91 0 176 91v472q0 143 -115 209q-49 28 -97 28q-88 0 -157 -79q-91 -104 -91 -304z" />
<glyph unicode="e" horiz-adv-x="909" d="M76 446q0 216 101 349q112 149 322 149q162 0 258 -107q94 -103 94 -266h-633q-1 -170 79 -293q93 -143 255 -143q186 0 268 219l31 -20q-23 -151 -122 -252q-106 -110 -253 -110q-189 0 -300 147q-100 133 -100 327zM218 629h424q-5 88 -21 124q-53 120 -178 120 q-97 0 -159 -76q-56 -67 -66 -168z" />
<glyph unicode="f" horiz-adv-x="682" d="M79 844v72h178v60q0 270 179 386q90 58 203 58q105 0 193 -68q58 -45 58 -101q0 -30 -26 -56.5t-56 -26.5q-13 0 -109.5 90t-138.5 90q-97 0 -124 -100q-14 -52 -14 -266v-66h236v-72h-236v-602q0 -128 28 -162q37 -44 99 -44h83v-36h-547v36h41q92 0 119 74 q12 33 12 132v602h-178z" />
<glyph unicode="g" d="M61 -251q0 50 81 151q8 10 102 108q-95 57 -95 111q0 81 160 215q-174 85 -174 277q0 153 108 245q101 87 257 87q131 0 227 -64h194q43 0 50 -3q16 -7 16 -40q0 -38 -15 -44q-8 -3 -51 -3h-119q56 -72 56 -184q0 -145 -111 -231q-101 -79 -250 -79q-68 0 -139 20 q-75 -65 -75 -115q0 -44 81 -56q29 -4 140 -7q207 -5 267 -14q90 -13 144 -64q60 -56 60 -143q0 -113 -106 -212q-156 -146 -407 -146q-194 0 -326 87q-75 49 -75 104zM204 -176q0 -48 58 -84q100 -62 289 -62q123 0 219 39q132 54 132 160q0 69 -103 90q-33 7 -154 10 q-209 6 -346 23q-95 -103 -95 -176zM309 655q0 -158 68 -245q52 -66 132 -66q174 0 174 236q0 159 -69 249q-51 66 -131 66q-92 0 -137 -78q-37 -63 -37 -162z" />
<glyph unicode="h" d="M13 1310l274 112h46v-670q83 91 135 129q85 62 171 62q165 0 217 -178q19 -65 19 -234v-324q0 -86 14 -119q22 -52 122 -52v-36h-450v36h21q105 0 124 77q3 12 3 94v324q0 113 -4 143q-20 148 -143 148q-106 0 -229 -131v-484q0 -70 3 -88q14 -83 145 -83v-36h-454v36 q60 0 96 19q44 23 44 152v829q0 217 -30 242q-15 13 -42 13q-21 0 -68 -16z" />
<glyph unicode="i" horiz-adv-x="569" d="M60 831l276 112h44v-736q0 -129 50 -157q25 -14 89 -14v-36h-445v36q102 0 127 56q13 29 13 115v353q0 150 -9 193q-12 57 -63 57q-28 0 -68 -15zM195 1321q0 43 29.5 72t72.5 29q42 0 71.5 -29.5t29.5 -71.5t-29.5 -72t-71.5 -30t-72 30t-30 72z" />
<glyph unicode="j" horiz-adv-x="569" d="M-156 -341q0 34 24 59.5t58 25.5q24 0 53 -13q15 -7 71 -55q45 -39 76 -39q61 0 81 80q11 44 11 189v652q0 151 -9 194q-12 58 -63 58q-28 0 -68 -15l-14 36l276 112h43v-922q0 -200 -78 -320q-92 -143 -282 -143q-60 0 -111 21q-68 28 -68 80zM195 1320q0 43 29.5 73 t72.5 30t73 -30t30 -73t-30 -72.5t-73 -29.5q-42 0 -72 30t-30 72z" />
<glyph unicode="k" d="M17 0v36q113 0 137 51q15 32 15 114v834q0 219 -30 244q-15 13 -42 13q-21 0 -63 -17l-17 35l272 112h46v-912l233 213q73 67 86 86q8 12 8 24q0 47 -71 51v32h398v-32q-144 -4 -256 -107l-235 -217l235 -297q94 -119 132 -156q48 -47 84 -61q25 -10 87 -10v-36h-445v36 q65 2 65 41q0 23 -40 74l-281 359v-304q0 -132 48 -157q23 -12 100 -13v-36h-466z" />
<glyph unicode="l" horiz-adv-x="569" d="M61 1310l273 112h45v-1215q0 -128 51 -156q27 -15 97 -15v-36h-449v36q98 0 122 56q13 30 13 115v832q0 215 -29 239q-15 13 -40 13q-26 0 -66 -16z" />
<glyph unicode="m" horiz-adv-x="1593" d="M17 831l276 112h43v-195q99 99 118 115q95 80 200 80q188 0 231 -195q81 94 139 135q85 60 181 60q157 0 219 -160q22 -57 22 -182v-394q0 -88 13 -118q23 -53 125 -53v-36h-452v36h19q105 0 125 74q4 15 4 97v394q0 113 -27 158q-38 64 -125 64q-104 0 -236 -125l-2 -11 l2 -43v-437q0 -70 3 -88q14 -83 146 -83v-36h-463v36q122 0 144 72q5 16 5 99v394q0 113 -33 161q-44 64 -123 64q-53 0 -107 -29q-84 -45 -128 -99v-491q0 -129 50 -157q25 -14 99 -14v-36h-453v36q101 0 126 57q13 29 13 114v350q0 152 -9 195q-12 58 -63 58 q-28 0 -67 -15z" />
<glyph unicode="n" d="M12 831l276 112h43v-194q161 194 307 194q155 0 215 -161q22 -59 22 -184v-391q0 -129 50 -157q25 -14 90 -14v-36h-453v36h19q105 0 125 77q4 15 4 94v375q0 238 -142 238q-119 0 -237 -130v-483q0 -92 11 -115q27 -56 138 -56v-36h-453v36h20q77 0 102 49q17 34 17 122 v340q0 225 -30 250q-15 13 -42 13q-28 0 -67 -15z" />
<glyph unicode="o" d="M69 449q0 130 57 246q61 124 166.5 186t219.5 62q208 0 334 -158q107 -135 107 -310q0 -131 -55 -247q-60 -125 -165 -190.5t-232 -65.5q-207 0 -329 165q-103 139 -103 312zM255 533q0 -170 61 -309q79 -181 228 -181q223 0 223 355q0 243 -105 384q-72 96 -181 96 q-134 0 -193 -142q-33 -79 -33 -203z" />
<glyph unicode="p" d="M-6 -401h25q89 0 115 46q19 33 19 135v866q0 126 -33 149q-17 12 -48 12q-24 0 -61 -14l-12 32l282 114h38v-214q128 218 293 218q138 0 230 -108q113 -132 113 -344q0 -237 -136 -392q-112 -127 -282 -127q-74 0 -128 21q-41 16 -90 60v-279q0 -74 3 -90q9 -49 49 -70 q29 -15 103 -15v-37h-480v37zM319 324q0 -110 9 -146q17 -68 77 -108q56 -38 129 -38q100 0 162 78q81 102 81 287q0 210 -92 323q-64 78 -152 78q-48 0 -95 -24q-36 -18 -119 -108v-342z" />
<glyph unicode="q" d="M68 417q0 223 122 370q130 156 349 156q115 0 191 -64q58 28 111 64h34v-1178q0 -64 4 -85q9 -47 46 -67q26 -14 99 -14v-37h-462v37h19q94 0 117 55q12 29 12 111v394q-158 -187 -300 -187q-161 0 -258 148q-84 129 -84 297zM236 490q0 -150 62 -253q75 -124 216 -124 q111 0 196 109v430q0 138 -89 191q-50 30 -113 30q-142 0 -214 -127q-58 -102 -58 -256z" />
<glyph unicode="r" horiz-adv-x="682" d="M13 831l277 112h42v-206q115 206 236 206q50 0 88.5 -31t38.5 -80q0 -38 -25 -65.5t-63 -27.5q-20 0 -80.5 34.5t-62.5 34.5q-17 0 -39 -20q-46 -42 -93 -135v-439q0 -94 32 -134q36 -44 128 -44v-36h-469v36q118 0 139 73q5 17 5 97v355q0 123 1 123v-2q-5 93 -31 114 q-17 14 -44 14q-31 0 -70 -15z" />
<glyph unicode="s" horiz-adv-x="797" d="M100 678q0 118 81 192q78 73 197 73q54 0 131 -23q51 -15 68 -15q27 0 46 38h33v-312h-33q-32 122 -78 178q-61 75 -171 75q-58 0 -104 -30q-52 -34 -52 -89q0 -106 158 -183l146 -71q203 -99 203 -261q0 -129 -90 -206q-85 -72 -216 -72q-86 0 -192 30q-35 10 -54 10 q-23 0 -36 -26h-33v327h33q24 -121 92 -196q77 -86 192 -86q64 0 108 37q48 39 48 101q0 83 -85 147q-42 32 -164 91q-108 53 -157 100q-71 69 -71 171z" />
<glyph unicode="t" horiz-adv-x="569" d="M20 846v33q123 49 215 199q21 35 64 139h31v-301h214v-70h-214v-594q0 -151 91 -151q78 0 112 81h39q-70 -197 -231 -197q-111 0 -155 99q-21 47 -21 146v616h-145z" />
<glyph unicode="u" d="M2 879v37h321v-613q0 -208 152 -208q99 0 227 130v519q0 81 -34 109q-30 24 -113 26v37h312v-555q0 -217 32 -244q16 -14 38 -14q31 0 70 17l14 -35l-274 -113h-45v194q-89 -97 -137 -132q-85 -62 -174 -62q-162 0 -212 159q-22 70 -22 198v409q0 102 -55 129 q-24 12 -90 12h-10z" />
<glyph unicode="v" d="M17 879v37h431v-37h-28q-80 0 -80 -70q0 -33 21 -83l213 -506l214 525q23 56 23 85q0 14 -8 23q-19 26 -97 26v37h299v-37q-52 -4 -72 -21q-33 -28 -63 -100l-325 -786h-41l-327 773q-37 88 -93 117q-17 9 -67 17z" />
<glyph unicode="w" horiz-adv-x="1479" d="M13 879v37h384v-37q-86 -6 -86 -62q0 -29 17 -75l196 -527l197 429l-52 135q-22 58 -63 83q-23 14 -82 17v37h436v-37q-122 -5 -122 -77q0 -21 8 -41l208 -526l193 507q20 53 20 86q0 48 -96 51v37h289v-37q-87 -13 -128 -118l-306 -789h-41l-229 585l-267 -585h-37 l-294 770q-25 65 -51 92q-31 31 -94 45z" />
<glyph unicode="x" d="M27 879v37h431v-37q-74 0 -74 -51q0 -24 35 -74q17 -24 33 -50l65 -104l75 104q72 100 72 125q0 50 -72 50v37h310v-37q-49 -3 -85 -27q-47 -32 -134 -148l-125 -167l228 -328q66 -95 87 -116q53 -53 126 -57v-36h-432v36q89 0 89 57q0 22 -64 116l-134 196l-147 -196 q-68 -91 -68 -108q0 -61 90 -65v-36h-299v36q37 5 63 25q39 30 128 148l192 255l-174 252q-60 87 -88 113q-54 50 -128 50z" />
<glyph unicode="y" d="M12 879v37h427v-37h-21q-90 0 -90 -68q0 -40 33 -108l223 -462l205 506q17 42 17 81q0 33 -32 45q-16 6 -60 6v37h298v-37q-63 -7 -101 -61q-6 -9 -34 -77l-373 -914q-44 -108 -119 -181q-89 -88 -191 -88q-53 0 -92 29q-43 32 -43 83q0 93 103 93q32 0 90 -22 q39 -15 50 -15q75 0 137 151l65 159l-329 691q-14 30 -48 77q-26 36 -41 47q-22 16 -74 28z" />
<glyph unicode="z" horiz-adv-x="909" d="M41 0v36l608 810h-300q-77 0 -100 -5q-98 -21 -107 -179h-40l6 254h768v-37l-614 -812h334q83 0 116 9q59 16 87 70q16 31 27 135h34l-11 -281h-808z" />
<glyph unicode="{" horiz-adv-x="737" d="M35 441q0 -46 51 -48h7q124 -6 153 -82q12 -33 12 -184v-28q0 -209 75 -310q81 -108 259 -108l59 -1q51 0 51 52v100q0 51 -51 52h-25q-103 1 -134 53q-29 49 -29 213v54q0 220 -154 291q154 57 154 291v34q0 164 30 214.5t133 51.5h27q51 1 51 52v100q0 51 -51 51h-61 q-334 0 -334 -418v-8q0 -151 -12 -183q-29 -77 -153 -83h-7q-51 -2 -51 -47v-109z" />
<glyph unicode="|" horiz-adv-x="416" d="M145 -286q0 -33 31 -33h62q30 0 30 33v1380q0 32 -30 32h-63q-30 0 -30 -32v-1380z" />
<glyph unicode="}" horiz-adv-x="737" d="M35 1138v100q0 51 51 51h62q333 0 333 -418v-8q0 -151 13 -183q29 -77 153 -83h6q51 -2 51 -47v-109q0 -46 -51 -48h-6q-124 -6 -153 -82q-13 -33 -13 -184v-28q0 -209 -75 -310q-81 -108 -258 -108l-60 -1q-51 0 -51 52v100q0 51 51 52h25q103 1 134 53q29 49 29 213v54 q0 220 154 291q-154 57 -154 291v34q0 164 -30 214.5t-133 51.5h-27q-51 1 -51 52z" />
<glyph unicode="~" horiz-adv-x="1112" d="M20 471q127 217 310 217q37 0 59 -3q31 -4 62 -19l114 -54l129 -45l80 -14q111 0 209 156l98 -64q-135 -237 -311 -237h-39q-33 7 -125 41l-74 34q-152 70 -202 70q-67 0 -127 -51q-36 -31 -107 -131z" />
<glyph unicode="&#xa2;" d="M129 452q0 253 157 390q121 105 273 105q20 0 61 -4l140 383h72l-145 -402q101 -45 138 -87q48 -54 48 -115q0 -85 -94 -85q-55 0 -86 38q-18 22 -26 82q-4 31 -17 65l-228 -631q87 -61 163 -61q129 0 202 86q32 38 83 146l30 -13q-47 -188 -163 -292q-90 -81 -221 -81 q-81 0 -162 35l-142 -390h-70l155 427q-81 76 -117 154q-51 110 -51 250zM289 535q0 -137 81 -285l223 615q-28 12 -60 12q-102 0 -162 -74q-82 -100 -82 -268z" />
<glyph unicode="&#xa3;" horiz-adv-x="907" d="M66 0l69 176h60q20 113 20 244q0 20 -1 60.5t-1 60.5h-109l56 147h47q-3 21 -2 70q3 174 114 294q115 124 287 126q107 1 189 -66l-95 -147q-106 67 -196 67q-142 0 -142 -160q0 -32 9 -182h168l-58 -147h-106q-8 -247 -94 -367h518l-62 -176h-671z" />
<glyph unicode="&#xa5;" d="M2 352v73h424v144l-15 36h-409v73h377l-213 496q-31 73 -59 102q-39 41 -105 42v38h442v-38q-121 -8 -121 -62q0 -15 18 -59l214 -519l213 504q21 50 21 75q0 21 -21 41q-13 13 -64 17q-7 1 -27 3v38h346v-38q-59 0 -87 -23q-44 -36 -86 -132l-214 -485h387v-73h-419 l-7 -16v-164h426v-73h-426v-108q0 -113 11 -143q22 -60 119 -60h41v-41h-515v41h32q118 0 137 83q4 18 4 120v108h-424z" />
<glyph unicode="&#xa8;" horiz-adv-x="682" d="M57 1228q0 45 31.5 77t76.5 32q46 0 77.5 -31.5t31.5 -77.5q0 -45 -31.5 -76.5t-76.5 -31.5t-77 31.5t-32 76.5zM409 1228q0 45 32 77t77 32t76.5 -32t31.5 -77t-31.5 -76.5t-76.5 -31.5t-77 31.5t-32 76.5z" />
<glyph unicode="&#xa9;" horiz-adv-x="1556" d="M69 678q0 193 96.5 360.5t265 258t347.5 90.5q190 0 355 -94q169 -95 260 -259q95 -171 95 -356q0 -192 -95 -356q-96 -167 -262 -259q-170 -94 -353 -94q-195 0 -357 93q-165 94 -258.5 263t-93.5 353zM131 678q0 -176 87 -327t239.5 -236t320.5 -85q178 0 328.5 86 t235 239.5t84.5 322.5q0 177 -88 329t-242 235.5t-318 83.5q-171 0 -324 -87.5t-236 -235.5q-87 -156 -87 -325zM320 672q0 212 145 340q138 123 353 123q70 0 185 -38q24 -8 37 -8q31 0 49 45h40l20 -280h-39q-71 236 -303 236q-161 0 -246 -118q-75 -104 -75 -271 q0 -182 72 -288q85 -125 259 -125q195 0 312 162l37 -19q-139 -203 -383 -203q-202 0 -331 120q-132 123 -132 324z" />
<glyph unicode="&#xab;" d="M64 464l387 470h57l-244 -470l244 -472h-57zM508 464l394 470h58l-243 -470l243 -472h-58z" />
<glyph unicode="&#xad;" horiz-adv-x="858" d="M125 409v103q0 51 51 51l507 1q51 0 51 -52v-102q0 -51 -51 -51h-507q-51 0 -51 50z" />
<glyph unicode="&#xae;" horiz-adv-x="1556" d="M69 678q0 193 96.5 360.5t265 258t347.5 90.5q190 0 355 -94q169 -95 260 -259q95 -171 95 -356q0 -192 -95 -356q-96 -167 -262 -259q-170 -94 -353 -94q-195 0 -357 93q-165 94 -258.5 263t-93.5 353zM131 678q0 -176 87 -327t239.5 -236t320.5 -85q178 0 328.5 86 t235 239.5t84.5 322.5q0 177 -88 329t-242 235.5t-318 83.5q-171 0 -324 -87.5t-236 -235.5q-87 -156 -87 -325zM374 249v33q78 0 97 45q7 17 7 93v523q0 76 -3 87q-13 48 -89 48v36h386q120 0 201 -51q96 -60 96 -173q0 -164 -222 -222l209 -298q37 -53 68 -73 q18 -12 53 -15v-33h-184l-294 405h-76v-309q11 -63 118 -63v-33h-367zM623 697q195 0 256 88q29 42 29 94q0 87 -56.5 139t-144.5 52q-38 0 -84 -16v-357z" />
<glyph unicode="&#xb0;" horiz-adv-x="797" d="M84 1038q0 137 88 225.5t225 88.5t225.5 -88.5t88.5 -225.5t-88.5 -224t-225.5 -87q-136 0 -224.5 87.5t-88.5 223.5zM170 1038q0 -102 64.5 -166.5t166.5 -64.5t167 64.5t65 166.5q0 101 -65.5 166.5t-166.5 65.5q-102 0 -166.5 -65t-64.5 -167z" />
<glyph unicode="&#xb4;" horiz-adv-x="682" d="M236 1045l105 345h224l-295 -345h-34z" />
<glyph unicode="&#xb8;" horiz-adv-x="682" d="M187 -340q28 -4 48 -4q48 0 84.5 31.5t36.5 78.5q0 32 -24 53t-56 21q-10 0 -26 -2l111 178h60l-50 -79q125 -32 125 -146q0 -83 -68 -134q-61 -47 -147 -47q-37 0 -94 7v43z" />
<glyph unicode="&#xbb;" d="M64 -8l243 470l-243 472h58l394 -472l-394 -470h-58zM516 -8l244 470l-244 472h57l387 -472l-387 -470h-57z" />
<glyph unicode="&#x2c6;" horiz-adv-x="1014" d="M162 936l248 405h133l248 -405h-142l-170 248l-174 -248h-143z" />
<glyph unicode="&#x2da;" horiz-adv-x="452" d="M-314 433q0 137 88 225.5t225 88.5t225.5 -88.5t88.5 -225.5t-88.5 -224t-225.5 -87q-136 0 -224.5 87.5t-88.5 223.5zM-228 433q0 -102 64.5 -166.5t166.5 -64.5t167 64.5t65 166.5q0 101 -65.5 166.5t-166.5 65.5q-102 0 -166.5 -65t-64.5 -167z" />
<glyph unicode="&#x2dc;" horiz-adv-x="452" d="M-530 222q127 217 310 217q37 0 59 -3q31 -4 62 -19l114 -54l129 -45l80 -14q111 0 209 156l98 -64q-135 -237 -311 -237h-39q-33 7 -125 41l-74 34q-152 70 -202 70q-67 0 -127 -51q-36 -31 -107 -131z" />
<glyph unicode="&#x5b0;" horiz-adv-x="147" d="M0 -133h147v-146h-147v146zM0 -365h147v-145h-147v145z" />
<glyph unicode="&#x5b1;" horiz-adv-x="651" d="M0 -133h147v-146h-147v146zM127 -365h147v-145h-147v145zM252 -133h147v-146h-147v146zM504 -133h147v-146h-147v146zM504 -365h147v-145h-147v145z" />
<glyph unicode="&#x5b2;" horiz-adv-x="635" d="M0 -133h399v-123h-399v123zM487 -133h148v-146h-148v146zM487 -365h148v-145h-148v145z" />
<glyph unicode="&#x5b3;" horiz-adv-x="635" d="M0 -133h399v-123h-145l8 -207h-121l6 207h-147v123zM487 -133h148v-146h-148v146zM487 -365h148v-145h-148v145z" />
<glyph unicode="&#x5b4;" horiz-adv-x="147" d="M0 -133h147v-146h-147v146z" />
<glyph unicode="&#x5b5;" horiz-adv-x="399" d="M0 -133h147v-146h-147v146zM252 -133h147v-146h-147v146z" />
<glyph unicode="&#x5b6;" horiz-adv-x="399" d="M0 -133h147v-146h-147v146zM127 -365h147v-145h-147v145zM252 -133h147v-146h-147v146z" />
<glyph unicode="&#x5b7;" horiz-adv-x="399" d="M0 -133h399v-123h-399v123z" />
<glyph unicode="&#x5b8;" horiz-adv-x="399" d="M0 -133h399v-123h-145l8 -207h-121l6 207h-147v123z" />
<glyph unicode="&#x5b9;" horiz-adv-x="147" d="M0 1135v145h147v-145h-147z" />
<glyph unicode="&#x5bb;" horiz-adv-x="651" d="M0 -133h147v-146h-147v146zM252 -250h147v-145h-147v145zM504 -365h147v-145h-147v145z" />
<glyph unicode="&#x5bc;" horiz-adv-x="147" d="M0 442v146h147v-146h-147z" />
<glyph unicode="&#x5bd;" horiz-adv-x="92" d="M0 -133h92v-260h-92v260z" />
<glyph unicode="&#x5be;" horiz-adv-x="817" d="M145 932q0 -37 31 -37h466q30 0 30 37v54q0 38 -30 38h-466q-31 0 -31 -38v-54z" />
<glyph unicode="&#x5bf;" horiz-adv-x="977" d="M124 450q0 -36 30 -36h669q31 0 31 37v54q0 37 -31 37l-668 1q-31 0 -31 -38v-55z" />
<glyph unicode="&#x5c0;" horiz-adv-x="573" d="M231 0v1296h111v-1296h-111z" />
<glyph unicode="&#x5c1;" horiz-adv-x="1247" d="M852 1135v145h147v-145h-147z" />
<glyph unicode="&#x5c2;" horiz-adv-x="1247" d="M123 1135v145h147v-145h-147z" />
<glyph unicode="&#x5c3;" horiz-adv-x="793" d="M172 655l143 152l154 -150l-152 -149zM174 119l141 151l154 -149l-147 -152z" />
<glyph unicode="&#x5d0;" horiz-adv-x="1022" d="M90 899q-31 41 10 72l82 62q16 12 32 12q23 0 40 -22l467 -624v418h-116q-51 0 -51 51v104q0 51 51 51h270q51 0 51 -51v-568q0 -51 -51 -51q-86 0 -117 -1l170 -227q31 -41 -10 -72l-82 -62q-15 -11 -32 -11q-24 0 -40 22l-413 551q-51 -42 -51 -242v-107h92 q51 0 51 -51v-102q0 -51 -51 -51h-245q-52 0 -52 51v311q0 263 127 362z" />
<glyph unicode="&#x5d1;" horiz-adv-x="915" d="M74 51v103q0 51 51 51h488q-34 0 -62 38t-28 91v482l-383 1q-51 0 -51 51v104q0 51 51 51l537 -1q51 0 51 -51v-767l85 1q51 0 51 -51v-103q0 -51 -51 -51h-688q-51 0 -51 51z" />
<glyph unicode="&#x5d2;" horiz-adv-x="730" d="M48 102l191 348q36 66 90 66q26 0 54 -16l37 -20v338h-119q-51 0 -51 51v104q0 51 51 51h272q52 0 52 -51l-1 -633q0 -170 51 -220q29 -30 4 -55l-60 -62q-28 -29 -58 -18q-82 38 -114 118q-27 69 -27 198v49l-193 -348q-15 -27 -43 -27q-13 0 -26 7l-90 50 q-44 25 -20 70z" />
<glyph unicode="&#x5d3;" horiz-adv-x="861" d="M52 869v103q0 51 51 51l649 1q51 0 51 -52v-102q0 -51 -51 -51h-106v-770q0 -51 -51 -51h-103q-51 0 -51 51v637q0 49 30 91t67 42h-435q-51 0 -51 50z" />
<glyph unicode="&#x5d4;" horiz-adv-x="905" d="M78 869v104q0 51 51 51h488q203 0 203 -204v-769q0 -51 -51 -51h-103q-51 0 -51 51v767h-486q-51 0 -51 51zM125 50v527q0 51 50 51h103q52 0 52 -51v-527q0 -51 -52 -51h-102q-51 0 -51 51z" />
<glyph unicode="&#x5d5;" horiz-adv-x="550" d="M69 869v104q0 51 51 51h272q51 0 51 -51l-1 -922q0 -51 -51 -51h-102q-52 0 -52 51l1 767h-118q-51 0 -51 51z" />
<glyph unicode="&#x5d6;" horiz-adv-x="657" d="M74 869v103q0 52 51 52h412q51 0 51 -52v-103q0 -51 -51 -51h-118l77 -766q5 -51 -46 -56l-103 -9q-50 -4 -55 47l-64 644q-4 44 18 89q24 51 61 51h-182q-51 0 -51 51z" />
<glyph unicode="&#x5d7;" horiz-adv-x="981" d="M72 869v105q0 50 51 50h706q51 0 51 -51v-921q0 -51 -51 -51h-103q-51 0 -51 51v767l-298 -1v-768q0 -51 -51 -51h-103q-51 0 -51 51v632q0 64 33 106q23 30 38 30h-120q-51 0 -51 51z" />
<glyph unicode="&#x5d8;" horiz-adv-x="963" d="M103 51v922q0 51 50 51h103q51 0 51 -51l1 -770h159q109 0 157 50q53 55 53 187v381h-122q-51 0 -51 51v102q0 51 51 51h276q51 0 51 -51v-500q0 -221 -85 -334q-104 -140 -350 -140h-293q-51 0 -51 51z" />
<glyph unicode="&#x5d9;" horiz-adv-x="537" d="M78 869v104q0 51 51 51h272q51 0 51 -51v-519q0 -51 -51 -51h-102q-52 0 -52 52v363h-118q-51 0 -51 51z" />
<glyph unicode="&#x5da;" horiz-adv-x="795" d="M57 869v104q0 51 52 51h552q51 0 51 -51v-1241q0 -51 -51 -51h-103q-51 0 -51 51v1086h-399q-51 0 -51 51z" />
<glyph unicode="&#x5db;" horiz-adv-x="841" d="M66 869v104q0 51 51 51h590q51 0 51 -52v-487q0 -225 -85 -341q-104 -144 -350 -144h-197q-51 0 -51 51v100q0 52 51 52h217q210 0 210 248v367h-436q-51 0 -51 51z" />
<glyph unicode="&#x5dc;" horiz-adv-x="855" d="M55 870v186q0 166 62 254q30 44 74 23l59 -28q46 -21 29 -66q-13 -33 -26 -128v-86l471 1q51 0 51 -51v-579q0 -212 -119 -313q-101 -85 -272 -81q-51 2 -51 51v93q0 50 51 52q119 3 154 54q32 46 32 198v370l-464 -1q-51 0 -51 51z" />
<glyph unicode="&#x5dd;" horiz-adv-x="979" d="M56 870v103q0 52 50 52l590 -1q203 0 203 -203v-618q0 -202 -203 -202h-480q-51 0 -51 51v767h-58q-50 1 -51 51zM298 819q23 -2 44 -27q28 -33 28 -92v-493h325l-1 612h-396z" />
<glyph unicode="&#x5de;" horiz-adv-x="955" d="M66 868v104q0 51 51 51h557q203 0 203 -204l-1 -617q0 -203 -203 -203h-155q-51 0 -51 51v102q0 52 51 52h152v613h-382l45 -10q52 -12 52 -70q0 -13 -2 -28l-96 -681q-7 -50 -58 -43l-102 14q-50 7 -43 58l107 760h-74q-51 0 -51 51z" />
<glyph unicode="&#x5df;" horiz-adv-x="507" d="M47 871v102q0 51 51 51h272q51 0 51 -51v-1241q0 -51 -51 -51h-102q-51 0 -51 51v1088l-119 -1q-51 0 -51 52z" />
<glyph unicode="&#x5e0;" horiz-adv-x="593" d="M52 51v100q0 52 51 52h47q101 1 134 59q30 53 30 207v350h-92q-52 0 -52 52v102q0 51 52 51h244q53 0 53 -52v-553q0 -419 -334 -419h-82q-51 0 -51 51z" />
<glyph unicode="&#x5e1;" horiz-adv-x="893" d="M93 71l1 899q0 54 54 54h481q197 0 197 -201v-339q0 -485 -435 -485h-226q-72 0 -72 72zM298 202h113q210 0 210 248v367h-323v-615z" />
<glyph unicode="&#x5e2;" horiz-adv-x="915" d="M63 154q0 51 52 51h173l-120 562q-20 93 -60 145q-13 16 -13 33q0 24 24 41l71 41q44 25 77 -5q69 -64 105 -230l95 -436q7 -34 7 -61q0 -61 -35 -75l-40 -15q160 1 201 51q34 41 34 196v521q0 51 51 51h102q52 0 52 -51v-592q0 -197 -125 -297q-105 -84 -275 -84h-324 q-51 0 -51 51z" />
<glyph unicode="&#x5e3;" horiz-adv-x="873" d="M55 541v431q0 51 51 51h484q200 0 200 -201v-1090q0 -51 -51 -51h-103q-51 0 -51 51v1085h-325v-192h117q51 0 51 -51v-104q0 -51 -51 -51h-212q-110 0 -110 122z" />
<glyph unicode="&#x5e4;" horiz-adv-x="902" d="M72 539v432q0 52 57 52h495q202 0 202 -200v-348q0 -222 -84 -336q-105 -140 -351 -140h-198q-52 0 -52 51v100q0 52 52 52h218q110 4 157 53q53 54 53 186v376h-344v-193h116q52 0 52 -51v-105q0 -50 -52 -50h-211q-110 0 -110 121z" />
<glyph unicode="&#x5e5;" horiz-adv-x="885" d="M20 968q0 43 55 55l80 17q38 4 66 -66q25 -62 50 -125l205 -358q74 6 99.5 66t25.5 218v43h-92q-51 0 -51 52v102q0 51 51 51h245q52 0 52 -52v-246q0 -355 -234 -403l305 -531q26 -45 -18 -70l-90 -53q-14 -8 -28 -8q-27 0 -42 27l-597 1044q-81 141 -82 237z" />
<glyph unicode="&#x5e6;" horiz-adv-x="937" d="M64 49v103q0 52 51 52h377q38 0 149 -22q-37 19 -66 37q-71 42 -94 73l-324 429q-82 109 -89 225q-3 44 47 61l77 27q52 12 63 -40q10 -44 16 -63q13 -38 39 -72l269 -359q57 22 74 122q6 42 6 153v43h-92q-52 0 -52 52v102q0 51 52 51h244q53 0 53 -52v-246 q0 -303 -168 -382l85 -114q18 -19 34 -38t16 -39v-102q0 -51 -51 -51h-665q-51 0 -51 50z" />
<glyph unicode="&#x5e7;" horiz-adv-x="903" d="M62 877v92q0 55 56 55h655q51 0 51 -51v-555q0 -410 -357 -410h-16q-46 0 -46 50v102q0 44 47 44h12q93 0 127 68q28 56 28 191v355h-501q-56 0 -56 59zM132 -263l1 834q0 51 51 51h103q51 0 51 -51l-1 -834q0 -51 -51 -51h-103q-51 0 -51 51z" />
<glyph unicode="&#x5e8;" horiz-adv-x="835" d="M59 869v104q0 51 52 51h426q203 0 203 -204v-769q0 -51 -51 -51h-102q-51 0 -51 51v767h-425q-52 0 -52 51z" />
<glyph unicode="&#x5e9;" horiz-adv-x="1245" d="M106 86v887q0 51 51 51h103q51 0 51 -51v-771h283q-37 1 -59.5 39t-22.5 86v646q0 52 51 52h103q51 0 51 -52v-770h38q109 0 158 50q52 54 52 187v380l-61 -1q-51 -1 -51 51v103q0 50 51 51h215q51 1 51 -51v-499q0 -222 -84 -334q-105 -139 -351 -139l-555 -1 q-74 0 -74 86z" />
<glyph unicode="&#x5ea;" horiz-adv-x="1066" d="M51 37v101q0 51 51 51h8q99 0 131 47t32 202v379h-88q-51 0 -51 51l-1 105q0 51 52 51h737q52 0 52 -52v-920q0 -51 -51 -51h-103q-51 0 -51 51v765h-350q59 -27 59 -94v-362q0 -379 -333 -375h-43q-51 1 -51 51z" />
<glyph unicode="&#x5f0;" horiz-adv-x="1100" d="M619 869v104q0 51 51 51h272q51 0 51 -51l-1 -922q0 -51 -51 -51h-102q-52 0 -52 51l1 767h-118q-51 0 -51 51zM69 869v104q0 51 51 51h272q51 0 51 -51l-1 -922q0 -51 -51 -51h-102q-52 0 -52 51l1 767h-118q-51 0 -51 51z" />
<glyph unicode="&#x5f1;" horiz-adv-x="1087" d="M606 869v104q0 51 51 51h272q51 0 51 -51l-1 -922q0 -51 -51 -51h-102q-52 0 -52 51l1 767h-118q-51 0 -51 51zM78 869v104q0 51 51 51h272q51 0 51 -51v-519q0 -51 -51 -51h-102q-52 0 -52 52v363h-118q-51 0 -51 51z" />
<glyph unicode="&#x5f2;" horiz-adv-x="1074" d="M615 869v104q0 51 51 51h272q51 0 51 -51v-519q0 -51 -51 -51h-102q-52 0 -52 52v363h-118q-51 0 -51 51zM78 869v104q0 51 51 51h272q51 0 51 -51v-519q0 -51 -51 -51h-102q-52 0 -52 52v363h-118q-51 0 -51 51z" />
<glyph unicode="&#x5f3;" horiz-adv-x="449" d="M94 1040q0 125 123 125q67 0 105 -64q32 -54 32 -126q0 -242 -233 -313v38q55 45 72 99q10 32 10 121q-109 12 -109 120z" />
<glyph unicode="&#x5f4;" horiz-adv-x="874" d="M84 1040q0 125 123 125q66 0 104 -65q33 -55 33 -125q0 -242 -233 -313v38q53 45 71 99q11 33 11 121q-109 12 -109 120zM530 1040q0 125 123 125q66 0 105 -65q33 -54 33 -125q0 -242 -234 -313v38q55 45 72 99q10 32 10 121q-109 12 -109 120z" />
<glyph unicode="&#x2000;" horiz-adv-x="752" />
<glyph unicode="&#x2001;" horiz-adv-x="1505" />
<glyph unicode="&#x2002;" horiz-adv-x="752" />
<glyph unicode="&#x2003;" horiz-adv-x="1505" />
<glyph unicode="&#x2004;" horiz-adv-x="501" />
<glyph unicode="&#x2005;" horiz-adv-x="376" />
<glyph unicode="&#x2006;" horiz-adv-x="250" />
<glyph unicode="&#x2007;" horiz-adv-x="250" />
<glyph unicode="&#x2008;" horiz-adv-x="188" />
<glyph unicode="&#x2009;" horiz-adv-x="301" />
<glyph unicode="&#x200a;" horiz-adv-x="83" />
<glyph unicode="&#x2010;" horiz-adv-x="858" d="M125 409v103q0 51 51 51l507 1q51 0 51 -52v-102q0 -51 -51 -51h-507q-51 0 -51 50z" />
<glyph unicode="&#x2011;" horiz-adv-x="858" d="M125 409v103q0 51 51 51l507 1q51 0 51 -52v-102q0 -51 -51 -51h-507q-51 0 -51 50z" />
<glyph unicode="&#x2012;" horiz-adv-x="858" d="M125 409v103q0 51 51 51l507 1q51 0 51 -52v-102q0 -51 -51 -51h-507q-51 0 -51 50z" />
<glyph unicode="&#x2013;" d="M-17 453v73h1059v-73h-1059z" />
<glyph unicode="&#x2014;" horiz-adv-x="2048" d="M125 359v205h1799v-205h-1799z" />
<glyph unicode="&#x2018;" horiz-adv-x="682" d="M185 1067q0 119 88 215q59 64 171 105v-43q-102 -62 -139 -115q-27 -39 -27 -92q0 -62 38 -62q12 0 36 8t36 8q43 0 72.5 -31t29.5 -74q0 -51 -31 -79q-43 -38 -100 -38q-75 0 -126 63q-48 58 -48 135z" />
<glyph unicode="&#x2019;" horiz-adv-x="362" d="M115 680v72q43 65 43 168h-43v198h133v-155q0 -187 -133 -283z" />
<glyph unicode="&#x201a;" horiz-adv-x="682" d="M193 91q0 50 31 78q42 38 100 38q76 0 126 -62q48 -58 48 -135q0 -118 -89 -215q-59 -64 -171 -106v47q104 61 140 114q26 38 26 91q0 61 -37 61q-12 0 -36 -8t-36 -8q-43 0 -72.5 31t-29.5 74z" />
<glyph unicode="&#x201c;" horiz-adv-x="909" d="M67 1073q0 114 76 199q69 78 183 115v-41q-164 -86 -164 -205q0 -62 32 -62q13 0 37.5 7.5t37.5 7.5q43 0 72.5 -31t29.5 -74q0 -51 -38.5 -84t-90.5 -33q-76 0 -127 64q-48 59 -48 137zM546 1070q0 114 74 200q69 81 183 114v-38q-84 -48 -116 -83q-49 -53 -49 -129 q0 -56 34 -56q13 0 38.5 8t38.5 8q42 0 72 -30t30 -72q0 -52 -40 -86.5t-93 -34.5q-77 0 -126 63q-46 58 -46 136z" />
<glyph unicode="&#x201d;" horiz-adv-x="909" d="M67 1267q0 53 41 88q38 33 92 33q77 0 126 -63q46 -58 46 -136q0 -114 -74 -200q-69 -81 -183 -114v38q84 48 116 83q49 53 49 129q0 56 -34 56q-13 0 -38.5 -8t-38.5 -8q-42 0 -72 30t-30 72zM547 1270q0 51 38.5 84t90.5 33q76 0 127 -64q48 -59 48 -137 q0 -114 -76 -199q-69 -78 -183 -115v41q164 86 164 205q0 62 -32 62q-13 0 -37.5 -7.5t-37.5 -7.5q-43 0 -72.5 31t-29.5 74z" />
<glyph unicode="&#x201e;" horiz-adv-x="909" d="M67 80q0 52 41 87q38 33 91 33q76 0 126 -64q47 -59 47 -137q0 -114 -74 -200q-70 -82 -183 -115v42q80 45 115 83q49 54 49 128q0 56 -34 56q-13 0 -38 -8t-38 -8q-43 0 -72.5 30t-29.5 73zM547 82q0 51 38 84.5t90 33.5q77 0 128 -64q48 -59 48 -138q0 -114 -76 -199 q-69 -78 -183 -115v42q164 85 164 205q0 62 -32 62q-13 0 -37.5 -8t-37.5 -8q-42 0 -72 31.5t-30 73.5z" />
<glyph unicode="&#x2026;" horiz-adv-x="2081" d="M227 0v317h427l-1 -317h-426zM868 0v317h427l-1 -317h-426zM1509 0v317h427l-1 -317h-426z" />
<glyph unicode="&#x202f;" horiz-adv-x="301" />
<glyph unicode="&#x2039;" horiz-adv-x="682" d="M119 464l387 470h57l-244 -470l244 -472h-57z" />
<glyph unicode="&#x203a;" horiz-adv-x="682" d="M115 -8l243 470l-243 472h58l394 -472l-394 -470h-58z" />
<glyph unicode="&#x205f;" horiz-adv-x="376" />
<glyph unicode="&#x2122;" horiz-adv-x="2007" d="M30 1155l21 201h728l22 -201h-34q-20 141 -194 141h-75v-579q0 -76 16 -100q20 -29 90 -32v-36h-374v36q68 6 86 34q14 22 14 97v580h-76q-87 0 -128 -27q-46 -31 -62 -114h-34zM870 549v36q86 0 104 41q9 21 9 90v466q0 108 -37 127q-19 10 -76 10v37h286l273 -572 l265 572h279v-37q-41 -1 -60 -6q-30 -8 -42 -37q-9 -22 -9 -92v-468q0 -80 16 -101q20 -26 95 -30v-36h-398v36q44 1 63 6q34 9 47 38q9 20 9 86v492l-307 -658h-32l-308 649v-482q0 -99 36 -120q19 -11 57 -11h36v-36h-306z" />
<glyph unicode="&#xe000;" horiz-adv-x="915" d="M0 915h915v-915h-915v915z" />
<glyph unicode="&#xfb00;" horiz-adv-x="1364" d="M761 844v72h178v60q0 270 179 386q90 58 203 58q105 0 193 -68q58 -45 58 -101q0 -30 -26 -56.5t-56 -26.5q-13 0 -109.5 90t-138.5 90q-97 0 -124 -100q-14 -52 -14 -266v-66h236v-72h-236v-602q0 -128 28 -162q37 -44 99 -44h83v-36h-547v36h41q92 0 119 74 q12 33 12 132v602h-178zM79 844v72h178v60q0 270 179 386q90 58 203 58q105 0 193 -68q58 -45 58 -101q0 -30 -26 -56.5t-56 -26.5q-13 0 -109.5 90t-138.5 90q-97 0 -124 -100q-14 -52 -14 -266v-66h236v-72h-236v-602q0 -128 28 -162q37 -44 99 -44h83v-36h-547v36h41 q92 0 119 74q12 33 12 132v602h-178z" />
<glyph unicode="&#xfb01;" horiz-adv-x="1251" d="M742 831l276 112h44v-736q0 -129 50 -157q25 -14 89 -14v-36h-445v36q102 0 127 56q13 29 13 115v353q0 150 -9 193q-12 57 -63 57q-28 0 -68 -15zM877 1321q0 43 29.5 72t72.5 29q42 0 71.5 -29.5t29.5 -71.5t-29.5 -72t-71.5 -30t-72 30t-30 72zM79 844v72h178v60 q0 270 179 386q90 58 203 58q105 0 193 -68q58 -45 58 -101q0 -30 -26 -56.5t-56 -26.5q-13 0 -109.5 90t-138.5 90q-97 0 -124 -100q-14 -52 -14 -266v-66h236v-72h-236v-602q0 -128 28 -162q37 -44 99 -44h83v-36h-547v36h41q92 0 119 74q12 33 12 132v602h-178z" />
<glyph unicode="&#xfb02;" horiz-adv-x="1251" d="M743 1310l273 112h45v-1215q0 -128 51 -156q27 -15 97 -15v-36h-449v36q98 0 122 56q13 30 13 115v832q0 215 -29 239q-15 13 -40 13q-26 0 -66 -16zM79 844v72h178v60q0 270 179 386q90 58 203 58q105 0 193 -68q58 -45 58 -101q0 -30 -26 -56.5t-56 -26.5 q-13 0 -109.5 90t-138.5 90q-97 0 -124 -100q-14 -52 -14 -266v-66h236v-72h-236v-602q0 -128 28 -162q37 -44 99 -44h83v-36h-547v36h41q92 0 119 74q12 33 12 132v602h-178z" />
<glyph unicode="&#xfb03;" horiz-adv-x="1933" d="M1424 831l276 112h44v-736q0 -129 50 -157q25 -14 89 -14v-36h-445v36q102 0 127 56q13 29 13 115v353q0 150 -9 193q-12 57 -63 57q-28 0 -68 -15zM1559 1321q0 43 29.5 72t72.5 29q42 0 71.5 -29.5t29.5 -71.5t-29.5 -72t-71.5 -30t-72 30t-30 72zM761 844v72h178v60 q0 270 179 386q90 58 203 58q105 0 193 -68q58 -45 58 -101q0 -30 -26 -56.5t-56 -26.5q-13 0 -109.5 90t-138.5 90q-97 0 -124 -100q-14 -52 -14 -266v-66h236v-72h-236v-602q0 -128 28 -162q37 -44 99 -44h83v-36h-547v36h41q92 0 119 74q12 33 12 132v602h-178zM79 844 v72h178v60q0 270 179 386q90 58 203 58q105 0 193 -68q58 -45 58 -101q0 -30 -26 -56.5t-56 -26.5q-13 0 -109.5 90t-138.5 90q-97 0 -124 -100q-14 -52 -14 -266v-66h236v-72h-236v-602q0 -128 28 -162q37 -44 99 -44h83v-36h-547v36h41q92 0 119 74q12 33 12 132v602h-178 z" />
<glyph unicode="&#xfb04;" horiz-adv-x="1933" d="M1425 1310l273 112h45v-1215q0 -128 51 -156q27 -15 97 -15v-36h-449v36q98 0 122 56q13 30 13 115v832q0 215 -29 239q-15 13 -40 13q-26 0 -66 -16zM761 844v72h178v60q0 270 179 386q90 58 203 58q105 0 193 -68q58 -45 58 -101q0 -30 -26 -56.5t-56 -26.5 q-13 0 -109.5 90t-138.5 90q-97 0 -124 -100q-14 -52 -14 -266v-66h236v-72h-236v-602q0 -128 28 -162q37 -44 99 -44h83v-36h-547v36h41q92 0 119 74q12 33 12 132v602h-178zM79 844v72h178v60q0 270 179 386q90 58 203 58q105 0 193 -68q58 -45 58 -101q0 -30 -26 -56.5 t-56 -26.5q-13 0 -109.5 90t-138.5 90q-97 0 -124 -100q-14 -52 -14 -266v-66h236v-72h-236v-602q0 -128 28 -162q37 -44 99 -44h83v-36h-547v36h41q92 0 119 74q12 33 12 132v602h-178z" />
<glyph unicode="&#xfb06;" horiz-adv-x="1366" d="M817 846v33q123 49 215 199q21 35 64 139h31v-301h214v-70h-214v-594q0 -151 91 -151q78 0 112 81h39q-70 -197 -231 -197q-111 0 -155 99q-21 47 -21 146v616h-145zM100 678q0 118 81 192q78 73 197 73q54 0 131 -23q51 -15 68 -15q27 0 46 38h33v-312h-33 q-32 122 -78 178q-61 75 -171 75q-58 0 -104 -30q-52 -34 -52 -89q0 -106 158 -183l146 -71q203 -99 203 -261q0 -129 -90 -206q-85 -72 -216 -72q-86 0 -192 30q-35 10 -54 10q-23 0 -36 -26h-33v327h33q24 -121 92 -196q77 -86 192 -86q64 0 108 37q48 39 48 101 q0 83 -85 147q-42 32 -164 91q-108 53 -157 100q-71 69 -71 171z" />
<glyph unicode="&#xfb1d;" horiz-adv-x="684" d="M225 869v104q0 51 51 51h272q51 0 51 -51v-519q0 -51 -51 -51h-102q-52 0 -52 52v363h-118q-51 0 -51 51zM0 -133h147v-146h-147v146z" />
<glyph unicode="&#xfb1f;" horiz-adv-x="1473" d="M1014 869v104q0 51 51 51h272q51 0 51 -51v-519q0 -51 -51 -51h-102q-52 0 -52 52v363h-118q-51 0 -51 51zM477 869v104q0 51 51 51h272q51 0 51 -51v-519q0 -51 -51 -51h-102q-52 0 -52 52v363h-118q-51 0 -51 51zM0 -133h399v-123h-399v123z" />
<glyph unicode="&#xfb20;" horiz-adv-x="915" d="M63 154q0 51 52 51h173l-120 562q-20 93 -60 145q-13 16 -13 33q0 24 24 41l71 41q44 25 77 -5q69 -64 105 -230l95 -436q7 -34 7 -61q0 -61 -35 -75l-40 -15q160 1 201 51q34 41 34 196v521q0 51 51 51h102q52 0 52 -51v-592q0 -197 -125 -297q-105 -84 -275 -84h-324 q-51 0 -51 51z" />
<glyph unicode="&#xfb21;" horiz-adv-x="1022" d="M90 899q-31 41 10 72l82 62q16 12 32 12q23 0 40 -22l467 -624v418h-116q-51 0 -51 51v104q0 51 51 51h270q51 0 51 -51v-568q0 -51 -51 -51q-86 0 -117 -1l170 -227q31 -41 -10 -72l-82 -62q-15 -11 -32 -11q-24 0 -40 22l-413 551q-51 -42 -51 -242v-107h92 q51 0 51 -51v-102q0 -51 -51 -51h-245q-52 0 -52 51v311q0 263 127 362z" />
<glyph unicode="&#xfb22;" horiz-adv-x="861" d="M52 869v103q0 51 51 51l649 1q51 0 51 -52v-102q0 -51 -51 -51h-106v-770q0 -51 -51 -51h-103q-51 0 -51 51v637q0 49 30 91t67 42h-435q-51 0 -51 50z" />
<glyph unicode="&#xfb23;" horiz-adv-x="905" d="M78 869v104q0 51 51 51h488q203 0 203 -204v-769q0 -51 -51 -51h-103q-51 0 -51 51v767h-486q-51 0 -51 51zM125 50v527q0 51 50 51h103q52 0 52 -51v-527q0 -51 -52 -51h-102q-51 0 -51 51z" />
<glyph unicode="&#xfb24;" horiz-adv-x="841" d="M66 869v104q0 51 51 51h590q51 0 51 -52v-487q0 -225 -85 -341q-104 -144 -350 -144h-197q-51 0 -51 51v100q0 52 51 52h217q210 0 210 248v367h-436q-51 0 -51 51z" />
<glyph unicode="&#xfb25;" horiz-adv-x="855" d="M55 870v186q0 166 62 254q30 44 74 23l59 -28q46 -21 29 -66q-13 -33 -26 -128v-86l471 1q51 0 51 -51v-579q0 -212 -119 -313q-101 -85 -272 -81q-51 2 -51 51v93q0 50 51 52q119 3 154 54q32 46 32 198v370l-464 -1q-51 0 -51 51z" />
<glyph unicode="&#xfb26;" horiz-adv-x="979" d="M56 870v103q0 52 50 52l590 -1q203 0 203 -203v-618q0 -202 -203 -202h-480q-51 0 -51 51v767h-58q-50 1 -51 51zM298 819q23 -2 44 -27q28 -33 28 -92v-493h325l-1 612h-396z" />
<glyph unicode="&#xfb27;" horiz-adv-x="835" d="M59 869v104q0 51 52 51h426q203 0 203 -204v-769q0 -51 -51 -51h-102q-51 0 -51 51v767h-425q-52 0 -52 51z" />
<glyph unicode="&#xfb28;" horiz-adv-x="1066" d="M51 37v101q0 51 51 51h8q99 0 131 47t32 202v379h-88q-51 0 -51 51l-1 105q0 51 52 51h737q52 0 52 -52v-920q0 -51 -51 -51h-103q-51 0 -51 51v765h-350q59 -27 59 -94v-362q0 -379 -333 -375h-43q-51 1 -51 51z" />
<glyph unicode="&#xfb29;" horiz-adv-x="815" d="M84 452v81q0 51 51 51h182v167q0 51 51 51h82q51 0 51 -51v-167h182q51 0 51 -51v-81q0 -51 -51 -51h-182v-177q0 -51 -51 -51h-82q-51 0 -51 51v177h-182q-51 0 -51 51z" />
<glyph unicode="&#xfb2a;" horiz-adv-x="2492" d="M1353 86v887q0 51 51 51h103q51 0 51 -51v-771h283q-37 1 -59.5 39t-22.5 86v646q0 52 51 52h103q51 0 51 -52v-770h38q109 0 158 50q52 54 52 187v380l-61 -1q-51 -1 -51 51v103q0 50 51 51h215q51 1 51 -51v-499q0 -222 -84 -334q-105 -139 -351 -139l-555 -1 q-74 0 -74 86zM852 1135v145h147v-145h-147z" />
<glyph unicode="&#xfb2b;" horiz-adv-x="2492" d="M1353 86v887q0 51 51 51h103q51 0 51 -51v-771h283q-37 1 -59.5 39t-22.5 86v646q0 52 51 52h103q51 0 51 -52v-770h38q109 0 158 50q52 54 52 187v380l-61 -1q-51 -1 -51 51v103q0 50 51 51h215q51 1 51 -51v-499q0 -222 -84 -334q-105 -139 -351 -139l-555 -1 q-74 0 -74 86zM123 1135v145h147v-145h-147z" />
<glyph unicode="&#xfb2e;" horiz-adv-x="1421" d="M489 899q-31 41 10 72l82 62q16 12 32 12q23 0 40 -22l467 -624v418h-116q-51 0 -51 51v104q0 51 51 51h270q51 0 51 -51v-568q0 -51 -51 -51q-86 0 -117 -1l170 -227q31 -41 -10 -72l-82 -62q-15 -11 -32 -11q-24 0 -40 22l-413 551q-51 -42 -51 -242v-107h92 q51 0 51 -51v-102q0 -51 -51 -51h-245q-52 0 -52 51v311q0 263 127 362zM0 -133h399v-123h-399v123z" />
<glyph unicode="&#xfb2f;" horiz-adv-x="1421" d="M489 899q-31 41 10 72l82 62q16 12 32 12q23 0 40 -22l467 -624v418h-116q-51 0 -51 51v104q0 51 51 51h270q51 0 51 -51v-568q0 -51 -51 -51q-86 0 -117 -1l170 -227q31 -41 -10 -72l-82 -62q-15 -11 -32 -11q-24 0 -40 22l-413 551q-51 -42 -51 -242v-107h92 q51 0 51 -51v-102q0 -51 -51 -51h-245q-52 0 -52 51v311q0 263 127 362zM0 -133h399v-123h-145l8 -207h-121l6 207h-147v123z" />
<glyph unicode="&#xfb30;" horiz-adv-x="1169" d="M237 899q-31 41 10 72l82 62q16 12 32 12q23 0 40 -22l467 -624v418h-116q-51 0 -51 51v104q0 51 51 51h270q51 0 51 -51v-568q0 -51 -51 -51q-86 0 -117 -1l170 -227q31 -41 -10 -72l-82 -62q-15 -11 -32 -11q-24 0 -40 22l-413 551q-51 -42 -51 -242v-107h92 q51 0 51 -51v-102q0 -51 -51 -51h-245q-52 0 -52 51v311q0 263 127 362zM0 442v146h147v-146h-147z" />
<glyph unicode="&#xfb31;" horiz-adv-x="1062" d="M221 51v103q0 51 51 51h488q-34 0 -62 38t-28 91v482l-383 1q-51 0 -51 51v104q0 51 51 51l537 -1q51 0 51 -51v-767l85 1q51 0 51 -51v-103q0 -51 -51 -51h-688q-51 0 -51 51zM0 442v146h147v-146h-147z" />
<glyph unicode="&#xfb32;" horiz-adv-x="877" d="M195 102l191 348q36 66 90 66q26 0 54 -16l37 -20v338h-119q-51 0 -51 51v104q0 51 51 51h272q52 0 52 -51l-1 -633q0 -170 51 -220q29 -30 4 -55l-60 -62q-28 -29 -58 -18q-82 38 -114 118q-27 69 -27 198v49l-193 -348q-15 -27 -43 -27q-13 0 -26 7l-90 50 q-44 25 -20 70zM0 442v146h147v-146h-147z" />
<glyph unicode="&#xfb33;" horiz-adv-x="1008" d="M199 869v103q0 51 51 51l649 1q51 0 51 -52v-102q0 -51 -51 -51h-106v-770q0 -51 -51 -51h-103q-51 0 -51 51v637q0 49 30 91t67 42h-435q-51 0 -51 50zM0 442v146h147v-146h-147z" />
<glyph unicode="&#xfb34;" horiz-adv-x="1052" d="M225 869v104q0 51 51 51h488q203 0 203 -204v-769q0 -51 -51 -51h-103q-51 0 -51 51v767h-486q-51 0 -51 51zM272 50v527q0 51 50 51h103q52 0 52 -51v-527q0 -51 -52 -51h-102q-51 0 -51 51zM0 442v146h147v-146h-147z" />
<glyph unicode="&#xfb35;" horiz-adv-x="697" d="M216 869v104q0 51 51 51h272q51 0 51 -51l-1 -922q0 -51 -51 -51h-102q-52 0 -52 51l1 767h-118q-51 0 -51 51zM0 442v146h147v-146h-147z" />
<glyph unicode="&#xfb36;" horiz-adv-x="804" d="M221 869v103q0 52 51 52h412q51 0 51 -52v-103q0 -51 -51 -51h-118l77 -766q5 -51 -46 -56l-103 -9q-50 -4 -55 47l-64 644q-4 44 18 89q24 51 61 51h-182q-51 0 -51 51zM0 442v146h147v-146h-147z" />
<glyph unicode="&#xfb38;" horiz-adv-x="1110" d="M250 51v922q0 51 50 51h103q51 0 51 -51l1 -770h159q109 0 157 50q53 55 53 187v381h-122q-51 0 -51 51v102q0 51 51 51h276q51 0 51 -51v-500q0 -221 -85 -334q-104 -140 -350 -140h-293q-51 0 -51 51zM0 442v146h147v-146h-147z" />
<glyph unicode="&#xfb39;" horiz-adv-x="684" d="M225 869v104q0 51 51 51h272q51 0 51 -51v-519q0 -51 -51 -51h-102q-52 0 -52 52v363h-118q-51 0 -51 51zM0 442v146h147v-146h-147z" />
<glyph unicode="&#xfb3a;" horiz-adv-x="942" d="M204 869v104q0 51 52 51h552q51 0 51 -51v-1241q0 -51 -51 -51h-103q-51 0 -51 51v1086h-399q-51 0 -51 51zM0 442v146h147v-146h-147z" />
<glyph unicode="&#xfb3b;" horiz-adv-x="988" d="M213 869v104q0 51 51 51h590q51 0 51 -52v-487q0 -225 -85 -341q-104 -144 -350 -144h-197q-51 0 -51 51v100q0 52 51 52h217q210 0 210 248v367h-436q-51 0 -51 51zM0 442v146h147v-146h-147z" />
<glyph unicode="&#xfb3c;" horiz-adv-x="1002" d="M202 870v186q0 166 62 254q30 44 74 23l59 -28q46 -21 29 -66q-13 -33 -26 -128v-86l471 1q51 0 51 -51v-579q0 -212 -119 -313q-101 -85 -272 -81q-51 2 -51 51v93q0 50 51 52q119 3 154 54q32 46 32 198v370l-464 -1q-51 0 -51 51zM0 442v146h147v-146h-147z" />
<glyph unicode="&#xfb3e;" horiz-adv-x="1102" d="M213 868v104q0 51 51 51h557q203 0 203 -204l-1 -617q0 -203 -203 -203h-155q-51 0 -51 51v102q0 52 51 52h152v613h-382l45 -10q52 -12 52 -70q0 -13 -2 -28l-96 -681q-7 -50 -58 -43l-102 14q-50 7 -43 58l107 760h-74q-51 0 -51 51zM0 442v146h147v-146h-147z" />
<glyph unicode="&#xfb40;" horiz-adv-x="740" d="M199 51v100q0 52 51 52h47q101 1 134 59q30 53 30 207v350h-92q-52 0 -52 52v102q0 51 52 51h244q53 0 53 -52v-553q0 -419 -334 -419h-82q-51 0 -51 51zM0 442v146h147v-146h-147z" />
<glyph unicode="&#xfb41;" horiz-adv-x="1040" d="M240 71l1 899q0 54 54 54h481q197 0 197 -201v-339q0 -485 -435 -485h-226q-72 0 -72 72zM445 202h113q210 0 210 248v367h-323v-615zM0 442v146h147v-146h-147z" />
<glyph unicode="&#xfb43;" horiz-adv-x="1020" d="M202 541v431q0 51 51 51h484q200 0 200 -201v-1090q0 -51 -51 -51h-103q-51 0 -51 51v1085h-325v-192h117q51 0 51 -51v-104q0 -51 -51 -51h-212q-110 0 -110 122zM0 442v146h147v-146h-147z" />
<glyph unicode="&#xfb44;" horiz-adv-x="1049" d="M219 539v432q0 52 57 52h495q202 0 202 -200v-348q0 -222 -84 -336q-105 -140 -351 -140h-198q-52 0 -52 51v100q0 52 52 52h218q110 4 157 53q53 54 53 186v376h-344v-193h116q52 0 52 -51v-105q0 -50 -52 -50h-211q-110 0 -110 121zM0 442v146h147v-146h-147z" />
<glyph unicode="&#xfb46;" horiz-adv-x="1084" d="M211 49v103q0 52 51 52h377q38 0 149 -22q-37 19 -66 37q-71 42 -94 73l-324 429q-82 109 -89 225q-3 44 47 61l77 27q52 12 63 -40q10 -44 16 -63q13 -38 39 -72l269 -359q57 22 74 122q6 42 6 153v43h-92q-52 0 -52 52v102q0 51 52 51h244q53 0 53 -52v-246 q0 -303 -168 -382l85 -114q18 -19 34 -38t16 -39v-102q0 -51 -51 -51h-665q-51 0 -51 50zM0 442v146h147v-146h-147z" />
<glyph unicode="&#xfb47;" horiz-adv-x="1050" d="M209 877v92q0 55 56 55h655q51 0 51 -51v-555q0 -410 -357 -410h-16q-46 0 -46 50v102q0 44 47 44h12q93 0 127 68q28 56 28 191v355h-501q-56 0 -56 59zM279 -263l1 834q0 51 51 51h103q51 0 51 -51l-1 -834q0 -51 -51 -51h-103q-51 0 -51 51zM0 442v146h147v-146h-147z " />
<glyph unicode="&#xfb48;" horiz-adv-x="982" d="M206 869v104q0 51 52 51h426q203 0 203 -204v-769q0 -51 -51 -51h-102q-51 0 -51 51v767h-425q-52 0 -52 51zM0 442v146h147v-146h-147z" />
<glyph unicode="&#xfb49;" horiz-adv-x="1392" d="M253 86v887q0 51 51 51h103q51 0 51 -51v-771h283q-37 1 -59.5 39t-22.5 86v646q0 52 51 52h103q51 0 51 -52v-770h38q109 0 158 50q52 54 52 187v380l-61 -1q-51 -1 -51 51v103q0 50 51 51h215q51 1 51 -51v-499q0 -222 -84 -334q-105 -139 -351 -139l-555 -1 q-74 0 -74 86zM0 442v146h147v-146h-147z" />
<glyph unicode="&#xfb4a;" horiz-adv-x="1213" d="M198 37v101q0 51 51 51h8q99 0 131 47t32 202v379h-88q-51 0 -51 51l-1 105q0 51 52 51h737q52 0 52 -52v-920q0 -51 -51 -51h-103q-51 0 -51 51v765h-350q59 -27 59 -94v-362q0 -379 -333 -375h-43q-51 1 -51 51zM0 442v146h147v-146h-147z" />
<glyph unicode="&#xfb4b;" horiz-adv-x="697" d="M216 869v104q0 51 51 51h272q51 0 51 -51l-1 -922q0 -51 -51 -51h-102q-52 0 -52 51l1 767h-118q-51 0 -51 51zM0 1135v145h147v-145h-147z" />
<glyph unicode="&#xfb4c;" horiz-adv-x="1892" d="M1051 51v103q0 51 51 51h488q-34 0 -62 38t-28 91v482l-383 1q-51 0 -51 51v104q0 51 51 51l537 -1q51 0 51 -51v-767l85 1q51 0 51 -51v-103q0 -51 -51 -51h-688q-51 0 -51 51zM124 450q0 -36 30 -36h669q31 0 31 37v54q0 37 -31 37l-668 1q-31 0 -31 -38v-55z" />
<glyph unicode="&#xfb4d;" horiz-adv-x="1818" d="M1043 869v104q0 51 51 51h590q51 0 51 -52v-487q0 -225 -85 -341q-104 -144 -350 -144h-197q-51 0 -51 51v100q0 52 51 52h217q210 0 210 248v367h-436q-51 0 -51 51zM124 450q0 -36 30 -36h669q31 0 31 37v54q0 37 -31 37l-668 1q-31 0 -31 -38v-55z" />
<glyph unicode="&#xfb4e;" horiz-adv-x="1879" d="M1049 539v432q0 52 57 52h495q202 0 202 -200v-348q0 -222 -84 -336q-105 -140 -351 -140h-198q-52 0 -52 51v100q0 52 52 52h218q110 4 157 53q53 54 53 186v376h-344v-193h116q52 0 52 -51v-105q0 -50 -52 -50h-211q-110 0 -110 121zM124 450q0 -36 30 -36h669 q31 0 31 37v54q0 37 -31 37l-668 1q-31 0 -31 -38v-55z" />
<glyph unicode="&#xfb4f;" horiz-adv-x="1877" d="M945 899q-31 41 10 72l82 62q16 12 32 12q23 0 40 -22l467 -624v418h-116q-51 0 -51 51v104q0 51 51 51h270q51 0 51 -51v-568q0 -51 -51 -51q-86 0 -117 -1l170 -227q31 -41 -10 -72l-82 -62q-15 -11 -32 -11q-24 0 -40 22l-413 551q-51 -42 -51 -242v-107h92 q51 0 51 -51v-102q0 -51 -51 -51h-245q-52 0 -52 51v311q0 263 127 362zM55 870v186q0 166 62 254q30 44 74 23l59 -28q46 -21 29 -66q-13 -33 -26 -128v-86l471 1q51 0 51 -51v-579q0 -212 -119 -313q-101 -85 -272 -81q-51 2 -51 51v93q0 50 51 52q119 3 154 54 q32 46 32 198v370l-464 -1q-51 0 -51 51z" />
</font>
</defs>
</svg>
